<?xml version="1.0" encoding="UTF-8" standalone="no"?>
<!-- Created with Inkscape (http://www.inkscape.org/) -->

<svg
   xmlns:dc="http://purl.org/dc/elements/1.1/"
   xmlns:cc="http://creativecommons.org/ns#"
   xmlns:rdf="http://www.w3.org/1999/02/22-rdf-syntax-ns#"
   xmlns:svg="http://www.w3.org/2000/svg"
   xmlns="http://www.w3.org/2000/svg"
   xmlns:sodipodi="http://sodipodi.sourceforge.net/DTD/sodipodi-0.dtd"
   xmlns:inkscape="http://www.inkscape.org/namespaces/inkscape"
   id="svg2"
   version="1.1"
   inkscape:version="0.91 r13725"
   xml:space="preserve"
   width="2090.6675"
   height="2090.6675"
   viewBox="0 0 2090.6674 2090.6675"
   sodipodi:docname="fog.svg"><metadata
     id="metadata8"><rdf:RDF><cc:Work
         rdf:about=""><dc:format>image/svg+xml</dc:format><dc:type
           rdf:resource="http://purl.org/dc/dcmitype/StillImage" /><dc:title></dc:title></cc:Work></rdf:RDF></metadata><defs
     id="defs6"><clipPath
       clipPathUnits="userSpaceOnUse"
       id="clipPath16"><path
         d="m 0,2048 2048,0 L 2048,0 0,0 0,2048 Z"
         id="path18"
         inkscape:connector-curvature="0" /></clipPath></defs><sodipodi:namedview
     pagecolor="#ffffff"
     bordercolor="#666666"
     borderopacity="1"
     objecttolerance="10"
     gridtolerance="10"
     guidetolerance="10"
     inkscape:pageopacity="0"
     inkscape:pageshadow="2"
     inkscape:window-width="948"
     inkscape:window-height="716"
     id="namedview4"
     showgrid="false"
     inkscape:zoom="0.0921875"
     inkscape:cx="836.83083"
     inkscape:cy="1097.4357"
     inkscape:window-x="640"
     inkscape:window-y="233"
     inkscape:window-maximized="0"
     inkscape:current-layer="g10"
     fit-margin-top="0"
     fit-margin-left="0"
     fit-margin-right="0"
     fit-margin-bottom="0"
     borderlayer="true" /><g
     id="g10"
     inkscape:groupmode="layer"
     inkscape:label="Brasão2015"
     transform="matrix(1.25,0,0,-1.25,-443.16917,2273.2319)"><g
       id="g12"
       transform="translate(173.55932,0)"><g
         id="g14"
         clip-path="url(#clipPath16)"><g
           id="g20"
           transform="translate(1299.2566,926.3496)"><path
             d="m 0,0 c -2.408,3.44 -6.797,3.864 -9.79,6.534 -9.923,8.852 -20.752,16.744 -29.392,26.946 -5.252,6.202 -11.939,11.218 -15.82,18.536 -4.758,8.973 -9.777,17.855 -13.805,27.157 -5.421,12.52 -10.475,25.576 -12.164,38.939 -2.216,17.533 -3.198,35.441 -0.175,53.182 1.59,9.336 1.391,19.316 4.738,27.943 7.136,18.393 15.079,36.536 28.181,51.931 12.567,14.767 26.535,27.365 44.876,34.449 3.413,1.318 6.744,2.883 10.226,3.969 3.349,1.046 4.176,2.466 3.163,6.113 -4.583,16.505 -8.766,33.121 -13.092,49.697 -1.961,7.513 -2,7.644 -9.19,5.489 -21.993,-6.593 -44.374,-9.546 -67.363,-8.221 -24.745,1.425 -48.628,6.908 -72.294,13.916 -25.995,7.698 -49.83,19.766 -71.143,36.25 -14.656,11.335 -29.374,22.899 -40.197,38.465 -3.266,4.697 -6.432,9.659 -11.159,13.201 -0.676,-0.721 -1.379,-1.419 -2.023,-2.167 -8.669,-10.053 -15.435,-21.762 -25.89,-30.25 -10.962,-8.9 -20.651,-19.401 -32.906,-26.666 -10.869,-6.444 -21.418,-13.76 -32.973,-18.644 -21.129,-8.931 -43.126,-15.515 -65.728,-19.968 -17.204,-3.39 -34.59,-5.373 -52.013,-4.758 -17.762,0.626 -35.412,3.346 -52.327,9.367 -3.725,1.326 -5.466,0.497 -6.49,-3.629 -4.318,-17.411 -8.896,-34.76 -13.609,-52.07 -0.986,-3.619 0.185,-4.906 3.409,-6.106 7.628,-2.84 16.012,-4.827 22.442,-9.451 12.054,-8.671 24.173,-17.389 33.236,-29.809 13.777,-18.88 25.373,-38.702 29.445,-61.922 2.286,-13.035 5.276,-26.154 4.316,-39.555 -0.668,-9.313 -0.656,-18.626 -0.933,-27.94 -0.043,-1.476 -0.29,-2.987 -0.703,-4.407 -6,-20.625 -12.512,-41.053 -23.543,-59.697 -1.774,-2.997 -2.723,-6.464 -5.147,-9.09 -15.911,-17.233 -31.639,-34.668 -51.874,-47.142 -9.908,-4.286 -19.615,-9.05 -29.88,-12.48 -1.477,-0.494 -2.038,-1.551 -1.91,-3.085 0.251,-2.983 -0.027,-6.1 0.745,-8.936 5.105,-18.762 9.018,-37.823 15.463,-56.254 12.489,-35.719 25.964,-71.037 43.894,-104.392 13.063,-24.301 25.881,-48.709 41.613,-71.605 23.174,-33.726 49.449,-64.831 77.064,-94.767 18.937,-20.529 38.548,-40.528 58.894,-59.754 20.442,-19.317 40.637,-38.888 63.266,-55.702 1.299,-0.965 2.291,-3.044 4.549,-2.151 1.414,0.843 2.92,1.564 4.227,2.549 27.704,20.891 52.435,45.079 77.066,69.391 28.687,28.314 56.074,57.805 82.343,88.392 19.367,22.55 36.89,46.579 52.28,71.728 16.528,27.008 32.008,54.865 44.471,84.233 15.151,35.697 29.911,71.484 38.883,109.34 2.098,8.854 5.523,17.457 5.558,26.748 0.006,1.65 0.349,3.393 -1.825,4.111 C 19.026,-8.755 9.608,-4.148 0,0 m -477.008,410.862 c 18.68,0.3 37.039,2.912 55.106,7.641 11.621,3.042 22.834,7.688 33.043,13.548 28.672,16.456 54.395,36.832 75.481,62.612 0.87,0.755 1.863,1.409 2.591,2.282 11.377,13.656 22.836,27.247 33.977,41.093 2.298,2.856 3.169,2.163 4.998,-0.078 6.084,-7.46 12.272,-14.838 18.5,-22.179 5.998,-7.071 11.255,-14.781 18.134,-21.095 8.638,-11.019 18.881,-20.413 29.3,-29.714 13.078,-11.675 27.104,-22.158 42.215,-30.749 16.888,-9.602 35.157,-16.135 54.529,-19.745 12.533,-2.336 25.107,-2.417 37.653,-3.586 8.406,0.614 16.886,0.735 25.2,1.97 10.425,1.548 21.021,2.388 31.117,5.778 13.252,3.204 26.137,7.65 39.14,11.683 10.678,3.312 10.635,3.506 13.724,-7.057 15.129,-51.739 30.286,-103.47 45.338,-155.232 2.46,-8.462 4.371,-17.083 6.684,-25.59 0.735,-2.704 0.241,-3.666 -2.76,-4.025 C 75.229,237.015 63.537,235.26 51.822,233.694 31.387,230.964 14.523,221.955 0.649,206.493 -14.922,189.14 -19.28,168.387 -19.634,146.17 -20.099,116.977 -6.888,93.586 12.828,73.587 29.905,56.265 51.405,47.529 75.445,44.591 c 9.734,-1.19 19.365,-3.201 29.081,-4.564 2.93,-0.411 3.354,-1.514 3.016,-4.187 -5.195,-41.139 -11.548,-82.124 -23.567,-121.857 -8.173,-27.022 -18.616,-53.319 -29.227,-79.55 -15.508,-38.335 -37.385,-73.128 -57.727,-108.8 -3.449,-6.048 -8.049,-11.437 -12.061,-17.169 -1.028,-1.469 -2.516,-2.738 -2.501,-4.771 -5.275,-4.854 -8.714,-11.136 -12.761,-16.898 -4.803,-6.836 -10.598,-13.039 -14.017,-20.813 -0.565,-0.301 -1.287,-0.469 -1.674,-0.922 -27.309,-32.071 -54.795,-63.963 -84.539,-93.863 -26.191,-26.328 -52.552,-52.443 -80.776,-76.619 -9.342,-8.002 -19.298,-15.285 -28.094,-23.926 -10.329,-7.2 -20.736,-14.29 -30.933,-21.671 -2.704,-1.957 -4.602,-2.202 -7.38,-0.218 -10.382,7.413 -20.928,14.596 -31.412,21.865 -0.926,1.878 -2.746,2.838 -4.256,4.105 -12.733,10.676 -25.902,20.874 -38.14,32.089 -27.837,25.509 -54.801,51.942 -80.89,79.251 -7.235,7.573 -14.595,15.044 -21.521,22.894 -16.809,19.051 -33.397,38.297 -50.075,57.465 -2.762,5.502 -6.738,10.196 -10.348,15.103 -5.464,7.424 -10.049,15.515 -16.54,22.173 0.095,1.289 -0.746,2.162 -1.399,3.112 -31.025,45.133 -57.136,92.884 -77.685,143.718 -15.95,39.457 -28.25,80.005 -36.689,121.633 -4.289,21.153 -6.227,42.78 -9.422,64.164 -0.51,3.414 1.381,3.366 3.573,3.752 16.862,2.975 33.877,5.023 50.551,9.147 9.251,2.287 17.521,6.608 25.101,11.837 24.539,16.928 40.697,40.01 47.104,69.245 1.684,7.686 1.817,15.996 1.067,23.868 -1.375,14.445 -4.668,28.698 -11.786,41.46 -3.833,6.873 -9.633,12.694 -15.537,18.038 -14.49,13.115 -31.931,19.172 -51.161,21.018 -9.434,0.905 -18.785,2.635 -28.206,3.721 -3.114,0.358 -3.421,1.634 -2.778,4.24 6.411,25.982 13.875,51.668 21.477,77.319 9.96,33.607 19.757,67.263 29.638,100.893 0.562,1.915 1.289,3.781 1.872,5.69 2.114,6.911 2.102,6.909 9.231,4.78 14.175,-4.231 28.157,-9.112 42.531,-12.677 3.591,-1.982 7.665,-1.892 11.536,-2.639 14.457,-2.789 29.01,-4.69 43.783,-4.304 0,0 -0.172,0.003 -0.172,0.003 0.421,-0.288 0.84,-0.576 1.26,-0.864"
             style="fill:#f1cd36;fill-opacity:1;fill-rule:nonzero;stroke:none"
             id="path22"
             inkscape:connector-curvature="0" /></g><g
           id="g24"
           transform="translate(861.1426,336.9055)"><path
             d="M 0,0 C 2.016,-0.038 4.01,0.05 5.789,1.147 7.333,2.099 9.485,2.975 9.498,4.845 9.512,6.859 7.019,6.514 5.636,7.237 4.469,7.848 3.027,8.331 2.3,9.311 -0.162,12.624 -2.845,11.841 -5.397,9.828 -7.038,8.533 -10.443,8.204 -9.51,5.076 -8.55,1.86 -5.374,1.006 -2.48,0.167 -1.703,-0.058 -0.829,0.047 0,0 m 629.871,164.936 c -0.365,-5.51 0.124,-10.971 1.047,-16.385 2.237,-13.125 7.943,-23.661 21.639,-27.83 13.082,-3.982 18.009,-0.711 19.265,12.518 0.095,0.993 -0.044,2.062 0.278,2.971 1.488,4.208 -1.172,4.234 -3.843,3.628 -3.804,-0.863 -7.615,-0.739 -11.425,-0.591 -3.407,0.133 -5.605,1.463 -5.116,5.576 0.726,6.092 0.833,12.264 1.692,18.333 1.33,9.406 -0.186,12.254 -8.993,14.909 -3.178,0.958 -6.458,1.589 -9.607,2.625 -2.846,0.937 -3.717,-0.077 -4.308,-2.828 -0.928,-4.317 -0.3,-8.632 -0.629,-12.926 M 8.966,-22.552 c 0.277,2.911 -0.532,5.618 -1.422,8.32 -3.407,10.345 -3.41,10.362 -12.792,5.268 -3.405,-1.848 -7.913,-3.189 -4.205,-8.61 0.389,-0.568 0.19,-1.631 0.073,-2.437 -2.429,-16.745 -4.818,-33.495 -7.408,-50.215 -0.399,-2.577 0.229,-3.764 2.669,-4.21 4.41,-0.806 8.809,-1.669 13.222,-2.45 2.678,-0.474 3.465,1.075 3.696,3.43 0.453,4.623 1.046,9.233 1.61,13.845 1.511,12.354 3.037,24.706 4.557,37.059 m 359.019,-10.272 c 1.53,-10.724 8.056,-20.642 19.398,-27.268 9.539,-5.571 9.875,-5.395 16.186,3.699 0.663,0.956 1.297,1.944 2.06,2.816 2.428,2.778 2.486,4.763 -1.523,6.028 -4.303,1.357 -8.235,3.559 -12.004,6.034 -5.275,3.463 -5.411,4.226 -2.066,9.458 3.848,6.019 8.193,11.705 11.411,18.151 1.92,3.844 1.168,6.536 -1.904,9.166 -4.164,3.565 -8.275,7.201 -12.252,10.972 -2.462,2.334 -4.211,2.24 -5.781,-0.829 -0.679,-1.328 -1.56,-2.554 -2.347,-3.827 -6.091,-9.856 -11.131,-20.082 -11.178,-34.4 m -64.989,43.48 c -3.322,-10.918 -8.602,-18.552 -18.808,-21.707 -1.774,-0.548 -1.158,-2.112 -0.913,-3.392 0.393,-2.056 1.843,-2.981 3.627,-2.27 3.706,1.479 4.393,-0.868 4.713,-3.484 0.822,-6.744 1.43,-13.514 2.216,-20.263 1.245,-10.694 2.334,-21.414 3.924,-32.059 1.328,-8.885 6.682,-10.975 13.579,-5.735 0.925,0.703 1.822,1.442 2.76,2.128 3.447,2.52 4.874,5.28 1.333,8.898 -1.054,1.076 -1.385,2.541 -1.59,4.094 -1.887,14.289 -4.537,28.52 -5.524,42.867 -0.472,6.866 0.372,13.514 -3.079,20.037 -1.386,2.619 -0.546,6.464 -2.238,10.886 M -271.42,90.913 c 0.001,0.065 0.001,0.13 0.001,0.195 2.828,0 5.667,-0.162 8.481,0.038 4.384,0.311 7.247,2.168 6.744,7.237 -0.688,6.929 -1.349,13.865 -1.777,20.812 -0.197,3.197 -1.894,3.963 -4.584,3.753 -3.636,-0.283 -7.276,-0.552 -10.9,-0.952 -12.045,-1.333 -23.256,-8.009 -25.826,-22.288 -1.567,-8.703 -0.991,-17.16 1.137,-25.64 2.99,-11.912 3.934,-12.553 16.246,-12.083 3.057,0.116 3.764,0.925 2.697,3.78 -2.385,6.383 -4.209,12.928 -5.58,19.619 -0.719,3.508 0.715,5.196 3.884,5.47 3.137,0.271 6.316,0.059 9.477,0.059 M -92.744,8.338 c 3.015,-3.235 5.197,-6.986 8.634,-9.668 4.05,-3.16 6.766,0.213 9.753,1.997 1.504,0.9 2.26,2.048 1.376,4.138 -5.318,12.571 -8.876,14.094 -21.181,8.657 -1.515,-0.669 -2.983,-1.479 -4.381,-2.369 -7.932,-5.05 -9.879,-11.186 -6.57,-20.123 3.55,-9.59 9.44,-17.91 14.349,-26.763 1.121,-2.021 2.974,-5.113 1.073,-6.32 -2.356,-1.498 -3.454,2.053 -4.778,3.704 -6.187,7.717 -12.908,9.246 -20.422,4.633 -2.421,-1.486 -3.188,-2.684 -0.39,-4.688 4.882,-3.495 9.435,-7.412 12.657,-12.577 1.239,-1.985 2.913,-2.129 4.734,-1.534 4.737,1.546 9.572,2.919 14.097,4.96 7.874,3.55 10.652,10.368 7.815,18.469 -2.317,6.616 -5.832,12.675 -9.21,18.788 -3.262,5.905 -6.609,11.779 -7.556,18.696 m -142.28,111.079 c -2.495,0.249 -3.196,-1.565 -4.033,-3.212 -11.296,-22.226 -22.545,-44.478 -33.949,-66.649 -1.73,-3.363 -1.173,-5.436 1.891,-7.489 2.744,-1.838 5.397,-3.932 7.682,-6.306 2.813,-2.923 4.056,-2.528 5.772,1.129 8.682,18.504 17.628,36.883 26.469,55.312 3.018,6.292 6.02,12.591 8.985,18.908 0.743,1.582 2.217,3.603 -0.451,4.577 -4.038,1.474 -8.236,2.509 -12.366,3.73 m -4.157,-102.142 c 2.454,0.933 2.722,3.331 3.541,5.176 9.785,22.045 19.404,44.165 29.229,66.192 5.255,11.78 5.397,11.717 -6.956,14.539 -0.486,0.111 -1.003,0.152 -1.452,0.349 -2.829,1.238 -4.067,-0.041 -5.264,-2.622 -9.455,-20.378 -18.993,-40.719 -28.649,-61.003 -5.475,-11.502 -5.6,-11.449 4.668,-19.14 1.586,-1.188 3.223,-2.307 4.883,-3.491 m 439.963,-109.1 c 0.666,0 1.331,-0.011 1.996,0.002 8.323,0.165 7.294,-0.544 7.062,7.31 -0.516,17.424 -1.298,34.841 -1.964,52.26 -0.108,2.826 -0.369,5.337 3.219,6.914 2.371,1.042 3.094,3.698 -0.813,4.618 -2.554,0.601 -3.822,2.338 -4.578,4.741 -0.644,2.046 -1.555,4.011 -2.402,5.988 -0.783,1.827 -3.886,3.464 -1.827,5.469 1.862,1.813 3.377,-1.115 4.915,-2.092 2.125,-1.349 3.764,-0.962 5.178,0.88 1.223,1.593 3.956,2.477 2.885,5.229 -1.073,2.757 -6.465,4.555 -9.341,3.241 -5.785,-2.643 -10.892,-6.353 -15.942,-10.155 -2.271,-1.71 -2.72,-3.27 -0.599,-5.719 1.918,-2.215 2.891,-5.662 -0.299,-7.277 -4.77,-2.415 -2.213,-4.404 -0.092,-6.184 1.814,-1.524 2.677,-2.973 2.714,-5.399 0.261,-17.113 0.72,-34.224 1.033,-51.337 0.158,-8.581 0.08,-8.582 8.855,-8.489 m -64.89,32.743 c 0.442,-14.681 9.743,-23.618 20.879,-31.255 2.185,-1.499 4.389,-0.677 6.291,1.16 5.895,5.692 10.755,12.225 15.019,19.146 3.019,4.9 3.679,10.511 3.247,16.279 -1.036,13.839 -9.542,23.292 -18.712,32.406 -2.164,2.151 -4.097,1.842 -5.909,-0.34 -4.237,-5.104 -8.348,-10.315 -12.669,-15.346 -5.44,-6.335 -7.916,-13.691 -8.146,-22.05 m -311.973,92.044 c -0.117,10.705 -3.938,20.296 -7.515,29.943 -0.954,2.572 -2.794,2.388 -4.881,1.511 -6.274,-2.636 -12.679,-4.993 -18.818,-7.911 -7.781,-3.698 -12.769,-9.963 -14.831,-18.363 -3.51,-14.297 2.701,-26.318 9.276,-38.175 0.949,-1.712 2.864,-1.773 4.896,-1.301 4.915,1.141 9.309,3.472 13.875,5.451 12.76,5.53 17.701,15.789 17.998,28.845 m 727.747,12.195 c -1.088,-9.033 7.387,-23.176 15.731,-25.869 3.026,-0.977 4.94,-0.848 6.272,2.403 1.321,3.223 3.155,6.232 4.617,9.403 1.381,2.996 3.221,4.012 6.294,2.211 1.718,-1.006 3.982,-2.2 5.407,-0.099 2.814,4.149 4.241,9.006 5.525,13.803 0.721,2.693 -2.816,2.856 -3.732,4.742 -0.651,1.342 -1.469,2.601 -2.157,3.926 -5.822,11.216 -11.79,22.36 -17.382,33.69 -3.045,6.168 -8.74,5.811 -14.038,6.591 -4.729,0.695 -5.359,-3.457 -7.183,-6.297 -3.336,-5.195 -4.847,-11.828 -11.48,-14.502 -1.45,-0.585 -2.175,-2.205 -1.13,-3.789 1.165,-1.766 2.857,-1.531 4.388,-0.567 2.14,1.348 3.581,3.422 5.212,5.313 2.006,2.325 8.998,3.083 11.119,1.169 3.191,-2.881 0.573,-5.651 -0.845,-7.956 -4.402,-7.16 -6.27,-14.924 -6.618,-24.172 M 10.816,-89.636 c -0.185,-7.124 -0.189,-7.106 6.143,-5.671 2.263,0.513 4.532,1.094 6.831,1.331 4.004,0.413 6.393,1.81 6.326,6.487 -0.054,3.799 0.528,7.969 6.427,5.603 0.808,-0.324 2.11,-0.116 2.903,0.336 7.067,4.023 14.461,7.668 19.352,14.556 8.789,12.376 6.671,40.662 -3.713,51.736 -1.785,1.904 -3.544,1.703 -5.311,0.54 -3.124,-2.055 -6.733,-2.805 -10.109,-4.176 -2.614,-1.062 -3.669,-0.466 -5.256,2.191 -5.608,9.387 -3.781,8.804 -13.33,4.292 -0.899,-0.425 -1.731,-0.99 -2.617,-1.445 -2.47,-1.269 -3.318,-2.958 -1.957,-5.664 1.458,-2.9 1.575,-6.049 1.162,-9.259 -1.29,-10.026 -2.622,-20.048 -3.681,-30.098 -0.266,-2.518 -0.739,-4.401 -3.088,-5.725 -1.485,-0.838 -2.77,-2.317 -0.848,-3.977 2.496,-2.156 2.436,-4.684 1.986,-7.671 -0.69,-4.584 -0.867,-9.246 -1.22,-13.386 m -60.862,13.486 c 2.168,1.113 4.514,1.978 6.475,3.38 17.823,12.75 29.573,37.62 19.217,64.71 -4.075,10.66 -1.586,10.238 -13.353,5.821 -0.933,-0.35 -1.894,-0.626 -2.825,-0.982 -2.502,-0.959 -3.854,-0.814 -3.167,2.524 1.103,5.359 1.804,10.801 2.867,16.169 2.618,13.215 2.684,12.926 -10.615,11.86 -4.294,-0.345 -5.617,-2.052 -6.374,-5.764 -4.677,-22.917 -9.563,-45.792 -14.2,-68.716 -0.845,-4.178 -3.787,-9.074 -1.58,-12.467 2.166,-3.332 7.827,-2.717 11.922,-3.923 6.379,-1.878 6.317,-1.716 7.443,4.675 2.703,15.355 5.478,30.697 8.346,46.022 0.24,1.282 0.049,3.472 1.944,3.579 1.624,0.092 2.289,-1.727 2.919,-3.066 2.821,-5.995 3.711,-12.504 3.657,-18.937 -0.135,-15.904 -3.514,-30.994 -12.676,-44.885 M -175.257,2.956 c -0.219,-8.08 1.48,-16.286 4.753,-24.237 1.466,-3.563 3.12,-4.822 6.607,-2.139 3.022,2.327 6.33,4.289 9.551,6.351 2.114,1.353 3.545,1.167 4.372,-1.637 1.126,-3.819 2.56,-7.555 4.014,-11.267 1.82,-4.649 3.355,-5.017 7.287,-1.829 2.192,1.778 4.237,3.738 6.42,5.529 16.334,13.4 24.648,29.782 19.119,51.313 -0.425,1.656 -0.273,3.867 -2.959,3.832 -6.25,-0.081 -10.38,-4.715 -8.792,-10.751 2.895,-10.999 0.809,-21.356 -2.947,-31.651 -0.631,-1.73 -1.088,-4.06 -3.17,-3.879 -1.826,0.159 -1.692,2.597 -1.982,4.119 -2.433,12.752 -0.811,25.143 3.791,37.16 3.476,9.08 3.526,8.715 -6.126,9.396 -5.659,0.399 -8.447,-1.75 -10.673,-6.615 -4.685,-10.235 -5.815,-21.03 -6.097,-32.042 -0.038,-1.452 0.335,-3.27 -1.814,-3.487 -2.257,-0.228 -2.031,1.675 -2.283,3.091 -2.611,14.652 0.921,27.946 8.687,40.402 1.483,2.38 5.784,4.52 4.643,6.381 -1.57,2.559 -6.007,1.392 -9.181,1.997 -6.056,1.153 -11.132,-0.157 -14.226,-6.205 -5.364,-10.482 -9.244,-21.33 -8.994,-33.832 m -149.966,208.841 c 10.941,-4.937 16.324,-13.847 20.088,-24.066 0.983,-2.671 1.091,-4.148 -2.658,-3.036 -6.717,1.992 -13.177,1.592 -18.592,-3.561 -2.099,-1.996 -3.554,-0.766 -5.049,0.775 -3.574,3.684 -8.236,3.961 -12.934,4.066 -0.972,0.021 -2.162,0.126 -2.573,-1.03 -0.39,-1.096 0.516,-1.847 1.191,-2.552 2.534,-2.645 5.19,-5.18 7.624,-7.914 1.839,-2.066 4.091,-3.958 4.115,-7.136 0.084,-11.372 -1.459,-22.511 -4.647,-33.429 -1.203,-4.119 -4.001,-5.832 -8.167,-5.887 -5.148,-0.068 -8.321,2.849 -10.743,6.888 -2.463,4.109 -2.616,8.681 0.369,12.182 3.236,3.796 1.028,4.642 -1.9,5.828 -1.387,0.561 -2.732,1.251 -4.155,1.693 -1.803,0.56 -3.626,2.942 -5.316,1.447 -1.397,-1.236 -0.471,-3.8 -0.476,-5.78 -0.001,-0.491 0.129,-0.988 0.238,-1.473 3.461,-15.364 13.548,-24.987 27.666,-30.356 10.355,-3.937 19.467,0.027 24.946,9.764 1.618,2.874 2.902,6.01 3.85,9.173 2.07,6.901 2.209,7.011 7.347,2.022 0.955,-0.926 1.855,-1.949 2.941,-2.693 2.155,-1.475 4.456,-2.018 7.081,-1.006 2.771,1.069 3.359,2.175 1.063,4.538 -4.053,4.169 -7.834,8.602 -11.786,12.871 -6.203,6.7 -5.869,18.152 0.59,24.707 2.384,2.42 4.142,2.418 5.833,-0.529 2.099,-3.659 4.952,-6.711 8.102,-9.425 4.86,-4.188 10.258,-7.408 16.924,-7.684 0.933,-0.039 2.14,-0.322 2.633,0.846 0.398,0.945 -0.469,1.514 -1.084,2.006 -8.836,7.073 -13.417,17.2 -19.317,26.434 -5.563,8.71 -11.901,16.984 -21.772,21.353 -3.343,1.479 -6.928,3.261 -11.432,0.964 m 898.911,-107.42 c 0.19,-2.581 -0.521,-4.696 1.812,-5.55 2.84,-1.04 3.754,-3.578 4.985,-5.929 7.257,-13.867 14.63,-27.675 21.744,-41.614 1.818,-3.561 3.227,-3.424 5.638,-0.712 2.654,2.984 5.541,5.768 8.406,8.557 1.679,1.634 1.95,3.159 0.729,5.293 -5.207,9.1 -10.264,18.286 -15.384,27.436 -3.332,5.955 -6.685,11.899 -10.015,17.855 -0.971,1.737 -1.42,3.689 0.47,4.903 2.284,1.468 3.176,-0.591 4.08,-2.209 1.625,-2.905 3.258,-5.805 4.889,-8.707 6.28,-11.17 12.613,-22.313 18.813,-33.528 1.944,-3.515 3.681,-3.647 6.144,-0.494 2.249,2.878 4.634,5.7 7.291,8.194 2.431,2.281 2.304,4.022 0.601,6.796 -8.968,14.603 -17.692,29.356 -26.466,44.079 -0.758,1.271 -2.741,2.757 -0.374,4.124 1.769,1.022 3.149,-0.259 4.165,-1.721 0.76,-1.094 1.49,-2.211 2.179,-3.35 7.138,-11.825 14.292,-23.641 21.387,-35.492 4.347,-7.262 4.303,-7.285 9.792,-1.08 1.324,1.497 2.602,3.042 4.014,4.452 2.535,2.533 2.424,4.837 0.421,7.859 -6.433,9.708 -12.546,19.629 -18.804,29.455 -3.487,5.475 -7.161,10.836 -10.474,16.413 -2.249,3.787 -5.95,4.478 -9.463,4.2 -2.903,-0.23 -2.446,-3.914 -3.297,-6.113 -1.015,-2.626 -1.756,-5.373 -2.423,-8.114 -0.889,-3.653 -2.944,-5.073 -6.57,-3.783 -2.921,1.038 -4.287,-0.243 -5.103,-2.962 -1.196,-3.983 -2.55,-7.921 -3.956,-11.835 -0.928,-2.583 -2.625,-4.742 -5.595,-3.239 -4.948,2.505 -6.73,-0.177 -7.776,-4.232 -0.826,-3.204 -1.357,-6.484 -1.86,-8.952 M 508.691,-16.001 c 2.76,-0.119 6.158,0.309 9.566,1.377 8.772,2.749 15.313,8.544 21.389,15.057 3.187,3.416 6.355,6.821 10.853,8.622 3.552,1.421 3.984,3.769 2.376,7.211 -3.448,7.383 -6.826,14.823 -9.709,22.439 -1.641,4.335 -5.375,8.17 -3.603,13.592 0.723,2.215 -1.381,2.544 -3.14,2.768 -10.959,1.393 -11.861,0.969 -17.374,-8.503 -1.34,-2.301 -2.785,-4.553 -3.945,-6.942 -1.281,-2.638 -4.586,-5.865 1.529,-7.1 0.607,-0.122 1.009,-1.612 1.374,-2.52 3.346,-8.335 6.74,-16.651 9.964,-25.034 2.447,-6.363 0.959,-9.081 -5.73,-10.589 -3.498,-0.789 -6.846,-0.46 -10.027,1.661 -4.483,2.989 -7.252,7.332 -9.664,11.858 -7.978,14.969 -12.635,31.064 -15.535,47.704 -0.379,2.171 -0.405,4.544 1.338,6.124 5.49,4.976 10.189,12.057 19.457,7.895 2.034,-0.913 3.916,-0.589 5.099,1.628 2.038,3.818 4.124,7.611 6.151,11.434 0.744,1.403 1.144,2.809 -0.531,3.944 -3.394,2.302 -14.41,0.217 -16.545,-3.373 -5.86,-9.856 -13.252,-17.805 -24.769,-20.947 -2.168,-0.591 -3.056,-2.482 -3.843,-4.331 -5.164,-12.14 -7.978,-24.589 -5.527,-37.887 3.77,-20.462 21.06,-36.127 40.846,-36.088 M 349.848,-83.894 c 2.316,1.173 3.748,3.208 5.18,5.259 14.607,20.92 13.01,51.8 -4.081,70.945 -7.221,8.089 -5.154,6.862 -12.158,0.306 -0.972,-0.91 -1.84,-1.929 -2.79,-2.864 -2.332,-2.298 -3.85,-2.43 -4.402,1.399 -1.16,8.042 -2.513,16.055 -3.743,24.088 -0.226,1.473 -0.073,3.086 -1.808,3.781 -1.969,0.787 -14.749,-7.434 -14.781,-9.529 -0.01,-0.642 0.356,-1.28 0.444,-1.935 3.729,-27.781 7.489,-55.559 11.096,-83.357 0.357,-2.751 1.522,-3.392 3.899,-2.999 4.094,0.677 8.181,1.409 12.287,2.004 2.711,0.394 3.009,1.923 2.621,4.282 -2.561,15.545 -5.153,31.086 -7.402,46.677 -0.362,2.507 -2.507,6.569 0.134,7.593 3.243,1.257 5.275,-2.701 6.857,-5.33 9.594,-15.943 13.435,-33.099 10.403,-51.605 -0.48,-2.929 -1.979,-5.661 -1.732,-8.738 L 349.4,-84.33 c 0.099,0.016 0.239,-0.001 0.288,0.058 0.083,0.101 0.109,0.25 0.16,0.378 M 637.811,27.066 C 627.116,16.837 616.403,6.626 605.729,-3.626 590.638,-18.119 573.403,-29.765 555.68,-40.638 c -28.898,-17.726 -60.125,-30.586 -92.008,-41.684 -45.195,-15.733 -91.81,-25.468 -139.235,-31.82 -41.92,-5.615 -83.864,-10.596 -126.156,-12.202 -1.49,-0.056 -2.97,-0.369 -4.455,-0.562 -19.988,-0.956 -39.976,-0.901 -59.964,-0.008 -13.121,0.888 -26.237,1.852 -39.363,2.648 -29.107,1.763 -57.954,5.849 -86.859,9.463 -28.103,3.513 -55.957,8.513 -83.498,14.975 -29.49,6.919 -58.124,16.638 -86.468,27.428 -24.401,9.289 -47.688,20.763 -69.807,34.268 -16.818,10.268 -33.187,21.618 -47.328,35.723 -10.012,9.986 -20.375,19.619 -30.58,29.41 -10.494,11.333 -21.087,22.577 -31.459,34.02 -14.185,15.65 -27.015,32.383 -39.053,49.728 -12.631,18.198 -22.759,37.907 -34.234,56.804 -4.327,7.124 -10.298,13.185 -17.377,15.84 -8.41,3.153 -18.06,4.521 -27.333,1.055 -1.823,-0.682 -3.673,-1.663 -5.772,-1.262 8.996,10.929 19.492,20.427 29.259,30.619 13.942,14.549 28.103,28.889 42.219,43.271 11.675,11.895 25.975,19.421 42.211,21.957 8.841,1.382 18.146,-0.01 27.119,-2.366 23.132,-6.076 36.534,-23.32 48.187,-42.169 10.062,-16.274 19.217,-33.11 29.503,-49.268 10.793,-16.956 23.861,-31.917 39.093,-44.988 3.326,-2.854 5.738,-6.907 10.327,-8.175 2.508,-3.92 6.677,-5.918 10.311,-8.372 8.228,-5.554 15.242,-12.928 24.689,-16.665 9.085,-6.752 18.787,-12.786 29,-17.317 26.759,-11.871 54.412,-21.594 82.83,-28.66 41.465,-10.311 83.456,-18.079 125.817,-23.792 17.793,-2.4 35.619,-4.392 53.568,-5.141 23.319,-1.74 46.64,-1.7 69.961,-0.025 10.618,0.78 21.281,1.177 31.847,2.406 47.778,5.556 95.093,13.907 141.856,25.123 26.836,6.437 52.884,15.474 78.497,25.818 13.964,5.64 26.631,13.395 39.118,21.588 4.295,1.162 7.55,4.089 10.946,6.678 8.003,6.1 16.815,11.148 23.975,18.347 2.006,-0.305 2.939,1.359 4.151,2.379 22.661,19.064 40.847,41.756 55.721,67.348 9.518,16.377 18.195,33.277 29.883,48.38 13.332,17.229 30.107,27.317 52.157,28.846 22.768,1.579 40.542,-8.229 55.983,-23.409 14.359,-14.118 28.23,-28.733 42.275,-43.169 8.933,-9.183 17.795,-18.435 26.668,-27.677 0.434,-0.451 0.668,-1.095 0.995,-1.649 -9.997,3.018 -20.077,3.738 -30.344,1.399 -2.179,-0.497 -3.842,-1.57 -5.696,-2.706 -10.875,-6.663 -16.813,-17.339 -22.581,-27.951 C 715.871,119.99 694.18,88.521 668.348,59.865 658.34,48.762 647.911,38.072 637.811,27.066"
             style="fill:#f1cd36;fill-opacity:1;fill-rule:nonzero;stroke:none"
             id="path26"
             inkscape:connector-curvature="0" /></g><g
           id="g28"
           transform="translate(1415.6453,1551.9534)"><path
             d="m 0,0 c -0.195,-4.922 1.638,-9.491 2.815,-14.115 0.884,-3.474 0.272,-5.999 -1.618,-8.814 -5.476,-8.157 -10.61,-16.545 -16.165,-24.647 -2.07,-3.019 -1.404,-4.093 1.555,-5.883 12.251,-7.413 24.673,-5.226 36.977,-0.842 11.092,3.952 20.126,10.856 28.504,19.371 16.653,16.926 31.141,35.6 45.936,54.035 3.138,3.91 4.415,9.265 6.864,13.784 10.879,20.083 16.649,41.966 22.71,63.755 0.479,1.724 0.507,3.643 2.302,5.439 4.781,-10.403 9.22,-20.662 13.344,-31.091 7.916,-20.017 11.457,-41.092 13.763,-62.193 1.82,-16.659 -0.476,-33.52 -2.689,-50.252 -2.413,-18.24 -8.128,-35.595 -16.109,-51.669 -8.456,-17.029 -19.676,-32.703 -31.129,-48.15 -15.139,-20.42 -34.946,-33.979 -57.496,-44.097 -12.141,-5.448 -25.109,-8.578 -38.353,-10.666 -17.903,-2.821 -35.772,-6.011 -52.875,-12.373 -1.997,-0.743 -4.122,-1.138 -7.32,-1.999 3.017,6.267 5.295,11.849 8.276,17.026 8.333,14.472 13.141,30.367 16.466,46.377 3.364,16.195 3.188,32.872 -6.981,47.564 -0.377,0.545 -0.543,1.303 -1.024,1.7 -2.816,2.322 -5.394,5.698 -8.628,6.563 -4.486,1.199 -4.768,-4.23 -6.57,-6.799 -5.926,-8.448 -11.478,-17.168 -16.905,-25.949 -1.87,-3.026 -3.939,-4.468 -7.568,-4.2 -3.129,0.231 -6.334,0.03 -9.411,-0.899 -7.494,6.251 -15.961,11.087 -24.133,16.328 -3.836,2.46 -7.185,5.885 -11.891,6.875 0.111,3.133 -1.334,5.897 -2.666,8.476 -1.966,3.805 -1.197,6.598 1.116,9.974 6.674,9.742 12.823,19.844 19.47,29.606 2.024,2.973 1.471,4.145 -1.318,6.066 -28.011,19.297 -57.81,35.601 -87.77,51.503 -13.28,7.048 -27.993,11.394 -42.053,16.975 -0.911,0.361 -1.796,0.788 -3.939,1.734 9.158,0.902 17.083,1.588 24.985,2.479 30.162,3.399 58.597,-3.826 86.839,-13.321 16.367,-5.503 31.223,-14.005 46.66,-21.362 3.004,-1.432 4.457,-1.276 6.262,1.659 5.226,8.502 10.917,16.719 16.156,25.213 1.74,2.821 3.879,4.221 7.043,4.679 4.605,0.667 9.176,1.57 13.76,2.371 2.249,-1.382 4.467,-2.816 6.752,-4.133 C -17.206,10.997 -9.357,4.278 0,0"
             style="fill:#f1cd36;fill-opacity:1;fill-rule:nonzero;stroke:none"
             id="path30"
             inkscape:connector-curvature="0" /></g><g
           id="g32"
           transform="translate(667.0997,1572.182)"><path
             d="m 0,0 c 5.403,-0.928 10.796,-1.929 16.216,-2.746 2.153,-0.325 2.977,-1.864 3.969,-3.398 5.605,-8.662 11.339,-17.243 16.78,-26.006 1.766,-2.845 3.252,-3.365 6.258,-1.711 22.355,12.302 45.826,21.927 70.322,29.096 10.766,3.151 22.012,3.296 32.895,5.584 15.367,3.231 30.44,-0.692 45.64,-1.467 2.82,-0.143 5.627,-0.521 10.062,-0.947 -6.53,-2.604 -11.689,-4.83 -16.962,-6.738 -39.716,-14.371 -75.072,-36.868 -110.485,-59.247 -3.333,-2.106 -8.563,-3.498 -9.264,-6.921 -0.696,-3.393 3.582,-6.715 5.692,-10.051 4.981,-7.874 9.937,-15.78 15.319,-23.379 2.354,-3.324 2.415,-6.177 0.809,-9.595 -1.261,-2.686 -2.66,-5.377 -2.613,-8.488 -3.527,-0.328 -5.92,-2.882 -8.598,-4.684 -9.171,-6.169 -19.041,-11.311 -27.484,-18.556 -1.505,0.904 -3.24,1.068 -4.838,0.82 -7.275,-1.127 -11.383,2.344 -14.897,8.455 -5.384,9.364 -11.752,18.157 -17.516,27.309 -1.459,2.316 -2.39,2.25 -4.489,0.75 -13.812,-9.869 -23.35,-22.88 -27.094,-39.364 -2.092,-9.213 -1.84,-19.045 0.672,-28.232 2.484,-9.081 0.314,-14.393 -8.216,-18.985 -11.394,-6.133 -21.951,-13.833 -32.768,-21.01 -2.139,-1.419 -4.033,-1.745 -6.511,-1.218 -10.738,2.283 -21.495,4.495 -32.297,6.44 -3.178,0.573 -4.152,1.743 -3.693,4.911 1.098,7.572 1.814,15.198 2.904,22.771 0.448,3.116 -0.087,4.787 -3.532,5.705 -7.711,2.054 -15.259,4.709 -22.924,6.946 -2.365,0.69 -3.09,1.707 -2.733,4.225 1.096,7.74 1.641,15.564 2.93,23.267 0.645,3.852 -0.575,5.234 -4.093,6.192 -7.376,2.01 -14.605,4.561 -21.966,6.635 -2.682,0.755 -3.33,1.933 -2.726,4.57 2.597,11.337 5.07,22.702 7.509,34.074 0.392,1.829 1.508,2.818 2.953,3.753 13.551,8.774 27.124,17.515 40.573,26.444 2.266,1.505 3.716,1.027 5.738,-0.224 8.749,-5.413 17.166,-11.337 27.071,-14.781 12.819,-4.458 25.388,-3.875 38.041,0.27 5.069,1.66 9.892,3.833 14.597,6.363 2.503,1.346 2.921,2.413 1.284,4.851 -5.565,8.289 -10.804,16.799 -16.417,25.054 -2.035,2.993 -2.792,5.729 -1.69,9.28 1.372,4.425 2.211,9.015 3.28,13.534 C -21.528,-13.632 -10.764,-6.816 0,0"
             style="fill:#f1cd36;fill-opacity:1;fill-rule:nonzero;stroke:none"
             id="path34"
             inkscape:connector-curvature="0" /></g><g
           id="g36"
           transform="translate(395.8734,520.0918)"><path
             d="m 0,0 c 2.099,-0.401 3.95,0.58 5.772,1.261 9.273,3.466 18.923,2.099 27.333,-1.055 7.08,-2.654 13.05,-8.715 17.377,-15.839 11.475,-18.897 21.603,-38.607 34.234,-56.804 12.039,-17.345 24.868,-34.078 39.053,-49.728 10.373,-11.443 20.965,-22.687 31.459,-34.02 -0.024,-12.553 -1.945,-24.829 -5.032,-36.98 -0.999,-3.935 -2.692,-7.424 -4.565,-10.962 -9.679,-18.281 -21.468,-35.146 -34.238,-51.895 -3.899,8.957 -9.202,16.418 -16.756,22.292 -4.016,3.124 -8.704,4.824 -12.984,7.35 -2.571,1.518 -3.097,-0.874 -4.01,-2.262 -7.319,-11.13 -14.429,-22.399 -21.917,-33.413 -20.866,-30.691 -46.408,-57.499 -71.047,-85.05 -6.106,-6.826 -12.367,-13.513 -18.57,-20.253 -1.398,-1.52 -2.85,-2.991 -4.278,-4.485 -0.349,0.272 -0.699,0.544 -1.049,0.816 0.957,1.409 1.87,2.849 2.876,4.221 13.43,18.306 25.041,37.705 34.396,58.386 10.857,24.002 16.384,49.361 19.203,75.496 2.3,21.325 -1.047,42.174 -3.591,63.14 -3.165,26.081 -14.558,49.315 -25.502,72.637 -6.885,14.673 -11.268,30.136 -12.413,46.002 -1.144,15.849 2.298,31.216 15.343,42.541 1.999,1.736 3.772,3.731 5.652,5.607 0.759,-0.06 1.216,0.263 1.325,1.033 0,0 -0.069,-0.06 -0.069,-0.06 0.691,10e-4 1.075,0.316 1.069,1.035 l -0.046,-0.046 c 0.713,-0.017 1.062,0.33 1.045,1.043 L 0,0 Z"
             style="fill:#2b2b2b;fill-opacity:1;fill-rule:nonzero;stroke:none"
             id="path38"
             inkscape:connector-curvature="0" /></g><g
           id="g40"
           transform="translate(1498.954,363.9712)"><path
             d="m 0,0 c 10.099,11.006 20.529,21.697 30.537,32.799 25.832,28.656 47.522,60.125 65.927,93.981 5.769,10.612 11.707,21.288 22.582,27.952 1.854,1.136 3.517,2.208 5.696,2.705 10.266,2.34 20.347,1.62 30.344,-1.398 0,0 -0.031,0.024 -0.031,0.024 -0.021,-0.713 0.335,-1.041 1.037,-1.017 l -0.038,0.037 c 0.071,-0.743 0.525,-1.06 1.225,-1.104 4.698,-4.448 9.456,-8.778 13.409,-14.009 5.349,-7.079 7.437,-15.079 8.247,-23.64 1.804,-19.086 -3.372,-36.836 -10.616,-54.106 -6.163,-14.692 -13.259,-28.96 -18.86,-43.932 -7.457,-19.932 -9.368,-40.727 -11.368,-61.569 -3.46,-36.06 3.539,-70.529 16.84,-103.804 8.36,-20.917 20.057,-40.121 32.996,-58.544 2.291,-3.262 4.539,-6.554 6.807,-9.832 -0.288,-0.229 -0.575,-0.458 -0.863,-0.687 -26.943,28.045 -52.746,57.137 -77.554,87.054 -14.332,17.284 -26.304,36.425 -38.054,55.59 -2.119,3.456 -3.623,3.789 -7.278,2.093 C 58.295,-77.294 49.434,-86.68 43.709,-100.076 34.08,-86.362 24.676,-73.384 16.023,-59.778 4.286,-41.322 0.239,-21.289 0,0"
             style="fill:#2b2b2b;fill-opacity:1;fill-rule:nonzero;stroke:none"
             id="path42"
             inkscape:connector-curvature="0" /></g><g
           id="g44"
           transform="translate(984.8971,1541.9023)"><path
             d="m 0,0 c -20.115,-9.286 -34.765,-24.157 -44.36,-43.982 -1.879,-3.883 -3.633,-4.562 -7.544,-2.836 -11.248,4.965 -22.644,9.598 -34.045,14.208 -2.769,1.119 -3.3,2.084 -1.904,5.035 7.1,15.015 16.203,28.731 27.743,40.545 8.085,8.277 17.146,15.615 27.207,21.671 14.837,8.93 30.854,14.574 47.58,18.52 17.011,2.582 34.022,2.808 51.034,10e-4 27.981,-5.934 52.665,-18.477 73.081,-38.44 12.643,-12.363 22.288,-27.186 29.715,-43.352 1,-2.177 0.402,-2.761 -1.547,-3.554 -12.45,-5.069 -24.889,-10.171 -37.232,-15.492 -2.964,-1.277 -3.446,0.692 -4.371,2.353 -3.63,6.516 -7.008,13.089 -11.785,19.002 C 104.405,-14.972 93.493,-6.125 80.288,-0.032 53.531,12.063 26.768,12.338 0,0"
             style="fill:#f1cd36;fill-opacity:1;fill-rule:nonzero;stroke:none"
             id="path46"
             inkscape:connector-curvature="0" /></g><g
           id="g48"
           transform="translate(1050.6085,1595.0645)"><path
             d="m 0,0 c -17.012,2.807 -34.024,2.581 -51.035,-0.001 -6.157,34.033 -6.667,68.434 -5.232,102.782 0.619,14.806 4.646,29.469 7.123,44.197 0.55,3.272 1.091,6.547 1.636,9.822 14.615,-0.001 29.231,-0.004 43.847,-0.007 2.59,-15.249 5.174,-30.498 7.774,-45.746 0.756,-4.436 1.373,-8.863 1.251,-13.4 C 4.81,77.172 6.499,56.652 4.379,36.213 3.125,24.12 1.473,12.07 0,0"
             style="fill:#2b2b2b;fill-opacity:1;fill-rule:nonzero;stroke:none"
             id="path50"
             inkscape:connector-curvature="0" /></g><g
           id="g52"
           transform="translate(984.8971,1541.9023)"><path
             d="m 0,0 c 26.768,12.338 53.531,12.063 80.288,-0.032 -0.147,-25.641 -0.186,-51.283 -0.483,-76.922 -0.17,-14.637 0.422,-29.288 -0.624,-43.913 -6.878,6.314 -12.135,14.024 -18.133,21.095 -6.229,7.341 -12.417,14.719 -18.501,22.179 -1.828,2.242 -2.7,2.935 -4.998,0.079 C 26.408,-91.361 14.95,-104.952 3.572,-118.607 2.844,-119.481 1.851,-120.134 0.981,-120.89 0.757,-103.914 0.457,-86.939 0.328,-69.962 0.151,-46.642 0.103,-23.321 0,0"
             style="fill:#b8b8b8;fill-opacity:1;fill-rule:nonzero;stroke:none"
             id="path54"
             inkscape:connector-curvature="0" /></g><g
           id="g56"
           transform="translate(698.7917,443.9353)"><path
             d="m 0,0 c -9.447,3.737 -16.461,11.111 -24.689,16.666 -3.635,2.454 -7.803,4.451 -10.311,8.372 23.413,36.142 46.811,72.296 70.247,108.424 11.402,17.577 22.877,35.106 34.32,52.659 6.492,-6.657 11.077,-14.747 16.541,-22.172 3.61,-4.907 7.586,-9.6 10.347,-15.104 -0.49,-0.862 -0.937,-1.752 -1.477,-2.583 C 63.324,97.505 31.662,48.753 0,0"
             style="fill:#2b2b2b;fill-opacity:1;fill-rule:nonzero;stroke:none"
             id="path58"
             inkscape:connector-curvature="0" /></g><g
           id="g60"
           transform="translate(1386.2067,468.9602)"><path
             d="m 0,0 c -7.16,-7.199 -15.973,-12.246 -23.975,-18.347 -3.396,-2.589 -6.651,-5.516 -10.946,-6.677 -32.117,49.466 -64.232,98.931 -96.348,148.395 3.419,7.774 9.214,13.978 14.016,20.814 4.048,5.761 7.487,12.044 12.762,16.897 C -69.661,107.389 -34.831,53.695 0,0"
             style="fill:#2b2b2b;fill-opacity:1;fill-rule:nonzero;stroke:none"
             id="path62"
             inkscape:connector-curvature="0" /></g><g
           id="g64"
           transform="translate(1415.6453,1551.9534)"><path
             d="m 0,0 c -9.357,4.278 -17.206,10.997 -26.056,16.098 -2.285,1.317 -4.503,2.751 -6.752,4.133 4.643,13.522 9.315,27.033 13.895,40.575 0.655,1.938 1.399,3.616 3.033,4.995 25.459,21.472 50.875,42.996 76.307,64.499 0.364,0.307 0.819,0.507 2.296,1.401 C 60.606,124.269 58.78,117.742 56.889,111.234 49.426,85.562 41.924,59.901 34.505,34.217 33.927,32.215 33.072,30.548 31.549,29.144 21.02,19.443 10.514,9.717 0,0"
             style="fill:#2b2b2b;fill-opacity:1;fill-rule:nonzero;stroke:none"
             id="path66"
             inkscape:connector-curvature="0" /></g><g
           id="g68"
           transform="translate(667.0997,1572.182)"><path
             d="m 0,0 c -10.764,-6.816 -21.528,-13.632 -32.292,-20.449 -10.875,10.019 -21.731,20.058 -32.656,30.023 -1.069,0.975 -1.607,2.082 -1.976,3.354 -9.408,32.407 -18.804,64.818 -28.191,97.231 -0.039,0.135 0.084,0.316 0.36,1.238 5.426,-4.579 10.631,-8.958 15.823,-13.353 20.418,-17.285 40.807,-34.606 61.289,-51.815 1.903,-1.599 2.971,-3.373 3.74,-5.652 C -9.333,27.029 -4.647,13.521 0,0"
             style="fill:#2b2b2b;fill-opacity:1;fill-rule:nonzero;stroke:none"
             id="path70"
             inkscape:connector-curvature="0" /></g><g
           id="g72"
           transform="translate(1298.292,1446.1322)"><path
             d="m 0,0 c 4.706,-0.99 8.056,-4.415 11.891,-6.875 8.173,-5.24 16.639,-10.077 24.133,-16.328 -15.788,-24.424 -31.579,-48.849 -47.362,-73.28 -0.989,-1.53 -1.909,-3.105 -2.861,-4.659 -10.096,-3.39 -20.693,-4.23 -31.117,-5.779 -8.315,-1.235 -16.795,-1.356 -25.2,-1.969 15.054,23.34 30.085,46.692 45.169,70.01 C -16.944,-25.891 -8.452,-12.958 0,0"
             style="fill:#2b2b2b;fill-opacity:1;fill-rule:nonzero;stroke:none"
             id="path74"
             inkscape:connector-curvature="0" /></g><g
           id="g76"
           transform="translate(715.6561,1422.9285)"><path
             d="m 0,0 c 8.442,7.244 18.313,12.387 27.484,18.556 2.677,1.801 5.071,4.356 8.598,4.683 22.73,-34.973 45.46,-69.95 68.199,-104.92 0.64,-0.983 1.324,-1.92 1.223,-3.175 -14.773,-0.386 -29.325,1.515 -43.783,4.304 -3.871,0.747 -7.945,0.657 -11.536,2.639 C 33.863,-52.66 17.539,-27.408 1.222,-2.151 0.775,-1.46 0.406,-0.718 0,0"
             style="fill:#2b2b2b;fill-opacity:1;fill-rule:nonzero;stroke:none"
             id="path78"
             inkscape:connector-curvature="0" /></g><g
           id="g80"
           transform="translate(1046.9479,1751.8578)"><path
             d="m 0,0 c -14.616,0.003 -29.232,0.005 -43.848,0.007 -10.024,5.256 -16.557,22.707 -15.056,33.098 1.949,13.501 8.625,23.687 20.709,29.613 10.92,5.355 22.365,5.485 33.351,-0.449 C 6.573,56.104 13.017,46.501 14.953,33.607 16.533,23.083 10.362,5.513 0,0"
             style="fill:#f1cd36;fill-opacity:1;fill-rule:nonzero;stroke:none"
             id="path82"
             inkscape:connector-curvature="0" /></g><g
           id="g84"
           transform="translate(995.0041,209.9918)"><path
             d="M 0,0 C 19.988,-0.893 39.977,-0.949 59.965,0.007 50.136,-16.433 40.307,-32.873 30.003,-50.108 19.68,-32.867 9.84,-16.433 0,0"
             style="fill:#b8b8b8;fill-opacity:1;fill-rule:nonzero;stroke:none"
             id="path86"
             inkscape:connector-curvature="0" /></g><g
           id="g88"
           transform="translate(355.982,147.0154)"><path
             d="m 0,0 c -0.089,-0.839 -0.654,-0.999 -1.345,-0.879 -0.066,0.011 -0.159,0.648 -0.055,0.718 0.459,0.306 0.971,0.938 1.509,0.078 L 0,0 Z"
             style="fill:#2b2b2b;fill-opacity:1;fill-rule:nonzero;stroke:none"
             id="path90"
             inkscape:connector-curvature="0" /></g><g
           id="g92"
           transform="translate(393.9441,518.1279)"><path
             d="M 0,0 C -0.108,-0.771 -0.566,-1.093 -1.325,-1.033 -1.095,-0.419 -0.732,0.028 0,0"
             style="fill:#857527;fill-opacity:1;fill-rule:nonzero;stroke:none"
             id="path94"
             inkscape:connector-curvature="0" /></g><g
           id="g96"
           transform="translate(1656.2332,517.9503)"><path
             d="M 0,0 C -0.701,0.044 -1.154,0.361 -1.225,1.104 -0.489,1.1 -0.142,0.664 0,0"
             style="fill:#857527;fill-opacity:1;fill-rule:nonzero;stroke:none"
             id="path98"
             inkscape:connector-curvature="0" /></g><g
           id="g100"
           transform="translate(394.9445,519.103)"><path
             d="M 0,0 C 0.006,-0.719 -0.379,-1.035 -1.069,-1.035 -1.066,-0.325 -0.722,0.033 0,0"
             style="fill:#857527;fill-opacity:1;fill-rule:nonzero;stroke:none"
             id="path102"
             inkscape:connector-curvature="0" /></g><g
           id="g104"
           transform="translate(1655.0457,519.0173)"><path
             d="M 0,0 C -0.702,-0.024 -1.058,0.304 -1.036,1.017 -0.35,1.025 -0.011,0.68 0,0"
             style="fill:#857527;fill-opacity:1;fill-rule:nonzero;stroke:none"
             id="path106"
             inkscape:connector-curvature="0" /></g><g
           id="g108"
           transform="translate(395.9436,520.1)"><path
             d="M 0,0 C 0.016,-0.713 -0.332,-1.061 -1.045,-1.043 -1.07,-0.322 -0.723,0.027 0,0"
             style="fill:#857527;fill-opacity:1;fill-rule:nonzero;stroke:none"
             id="path110"
             inkscape:connector-curvature="0" /></g><g
           id="g112"
           transform="translate(822.2485,1337.2112)"><path
             d="M 0,0 C -0.42,0.288 -0.839,0.577 -1.26,0.865 -0.84,0.576 -0.42,0.288 0,0"
             style="fill:#2b2b2b;fill-opacity:1;fill-rule:nonzero;stroke:none"
             id="path114"
             inkscape:connector-curvature="0" /></g><g
           id="g116"
           transform="translate(356.0911,146.9324)"><path
             d="M 0,0 C 0.017,0.391 0.035,0.782 0.052,1.173 0.307,1.086 0.561,0.999 0.816,0.911 0.508,0.635 0.199,0.359 -0.109,0.083 L 0,0 Z"
             style="fill:#2b2b2b;fill-opacity:1;fill-rule:nonzero;stroke:none"
             id="path118"
             inkscape:connector-curvature="0" /></g><g
           id="g120"
           transform="translate(1693.688,148.5146)"><path
             d="M 0,0 0.742,-1.085 C 0.558,-1.265 0.378,-1.447 0.2,-1.632 -0.443,-1.641 -0.761,-1.286 -0.863,-0.687 -0.575,-0.458 -0.288,-0.229 0,0"
             style="fill:#2b2b2b;fill-opacity:1;fill-rule:nonzero;stroke:none"
             id="path122"
             inkscape:connector-curvature="0" /></g><g
           id="g124"
           transform="translate(1694.4299,147.4292)"><path
             d="m 0,0 c 0.357,-0.424 0.988,-0.815 0.218,-1.377 -0.034,-0.024 -0.497,0.54 -0.76,0.831 C -0.364,-0.361 -0.184,-0.179 0,0"
             style="fill:#2b2b2b;fill-opacity:1;fill-rule:nonzero;stroke:none"
             id="path126"
             inkscape:connector-curvature="0" /></g><g
           id="g128"
           transform="translate(1025.2446,457.8094)"><path
             d="m 0,0 c -2.259,-0.887 -3.251,1.192 -4.55,2.158 -22.629,16.813 -42.825,36.384 -63.266,55.701 -20.346,19.227 -39.957,39.225 -58.895,59.755 -27.614,29.935 -53.889,61.04 -77.063,94.766 -15.732,22.896 -28.55,47.305 -41.613,71.606 -17.93,33.354 -31.405,68.672 -43.894,104.391 -6.445,18.431 -10.358,37.492 -15.463,56.254 -0.772,2.836 -0.494,5.953 -0.745,8.937 -0.128,1.533 0.433,2.59 1.91,3.084 10.265,3.43 19.972,8.194 29.882,12.48 0.951,-0.266 1.884,-0.649 2.851,-0.778 56.567,-7.538 113.307,-13.176 170.376,-14.881 33.417,-0.999 66.847,-1.566 100.271,-2.328 l -0.093,0.093 c 0.061,-1.994 0.174,-3.989 0.174,-5.983 C -0.11,299.001 -0.111,152.747 -0.106,6.493 -0.106,4.328 -0.037,2.164 0,0"
             style="fill:#b8b8b8;fill-opacity:1;fill-rule:nonzero;stroke:none"
             id="path130"
             inkscape:connector-curvature="0" /></g><g
           id="g132"
           transform="translate(1024.8566,1370.8458)"><path
             d="m 0,0 c 4.727,-3.542 7.893,-8.505 11.159,-13.201 10.823,-15.566 25.541,-27.131 40.197,-38.465 21.313,-16.484 45.148,-28.552 71.143,-36.25 23.666,-7.008 47.549,-12.491 72.294,-13.917 22.989,-1.324 45.37,1.629 67.363,8.221 7.19,2.155 7.229,2.025 9.19,-5.488 4.326,-16.576 8.509,-33.192 13.092,-49.697 1.013,-3.647 0.187,-5.067 -3.162,-6.113 -3.483,-1.087 -6.814,-2.651 -10.227,-3.969 -18.341,-7.084 -32.309,-19.683 -44.876,-34.449 -13.102,-15.395 -21.045,-33.538 -28.181,-51.931 -3.347,-8.627 -3.148,-18.607 -4.738,-27.943 -3.023,-17.742 -2.041,-35.649 0.175,-53.182 1.689,-13.363 6.743,-26.42 12.165,-38.94 4.027,-9.301 9.046,-18.183 13.804,-27.156 3.881,-7.318 10.568,-12.335 15.82,-18.536 8.64,-10.202 19.469,-18.094 29.392,-26.946 2.993,-2.67 7.382,-3.094 9.786,-6.535 -30.896,-3.7 -61.704,-8.539 -92.701,-10.807 -37.661,-2.755 -75.402,-5.037 -113.204,-5.487 -22.799,-0.271 -45.596,-0.667 -68.395,-1.008 l 0.093,-0.092 c -0.035,1.664 -0.101,3.329 -0.101,4.993 C 0.083,-306.598 0.084,-156.297 0.08,-5.996 0.08,-3.997 0.028,-1.999 0,0"
             style="fill:#b8b8b8;fill-opacity:1;fill-rule:nonzero;stroke:none"
             id="path134"
             inkscape:connector-curvature="0" /></g><g
           id="g136"
           transform="translate(1024.8566,1370.8458)"><path
             d="m 0,0 c 0.028,-1.999 0.08,-3.997 0.08,-5.996 0.004,-150.301 0.003,-300.602 0.008,-450.902 0,-1.664 0.066,-3.329 0.101,-4.993 -33.424,0.761 -66.854,1.329 -100.271,2.327 -57.069,1.705 -113.809,7.344 -170.376,14.882 -0.967,0.128 -1.9,0.512 -2.851,0.778 20.233,12.474 35.961,29.908 51.872,47.141 2.424,2.626 3.373,6.094 5.147,9.091 11.032,18.644 17.543,39.071 23.543,59.697 0.413,1.42 0.66,2.93 0.703,4.407 0.277,9.314 0.265,18.627 0.933,27.94 0.96,13.401 -2.03,26.52 -4.316,39.555 -4.072,23.22 -15.668,43.042 -29.445,61.922 -9.063,12.42 -21.182,21.138 -33.236,29.809 -6.43,4.624 -14.814,6.611 -22.442,9.451 -3.224,1.2 -4.395,2.486 -3.409,6.106 4.713,17.309 9.291,34.659 13.609,52.07 1.024,4.126 2.765,4.955 6.49,3.629 16.915,-6.021 34.565,-8.741 52.327,-9.367 17.423,-0.615 34.809,1.368 52.013,4.758 22.602,4.453 44.599,11.036 65.728,19.968 11.555,4.884 22.104,12.2 32.973,18.644 12.255,7.265 21.944,17.766 32.906,26.665 10.455,8.489 17.221,20.198 25.89,30.251 C -1.378,-1.419 -0.676,-0.721 0,0"
             style="fill:#1e2264;fill-opacity:1;fill-rule:nonzero;stroke:none"
             id="path138"
             inkscape:connector-curvature="0" /></g><g
           id="g140"
           transform="translate(1024.9529,909.0472)"><path
             d="m 0,0 c 22.798,0.34 45.596,0.737 68.395,1.008 37.802,0.449 75.543,2.731 113.204,5.487 30.996,2.268 61.805,7.106 92.701,10.806 9.611,-4.147 19.03,-8.753 28.993,-12.041 2.175,-0.718 1.832,-2.461 1.826,-4.111 -0.035,-9.291 -3.46,-17.894 -5.559,-26.748 -8.971,-37.856 -23.732,-73.643 -38.882,-109.34 -12.464,-29.367 -27.943,-57.224 -44.471,-84.233 -15.39,-25.148 -32.913,-49.178 -52.28,-71.728 -26.269,-30.586 -53.656,-60.077 -82.343,-88.392 -24.632,-24.311 -49.363,-48.5 -77.066,-69.391 -1.307,-0.985 -2.814,-1.705 -4.227,-2.552 -0.036,2.161 -0.105,4.326 -0.106,6.49 C 0.18,-298.491 0.182,-152.237 0.174,-5.983 0.173,-3.988 0.06,-1.994 0,0"
             style="fill:#1e2264;fill-opacity:1;fill-rule:nonzero;stroke:none"
             id="path142"
             inkscape:connector-curvature="0" /></g><g
           id="g144"
           transform="translate(1059.8545,397.0015)"><path
             d="m 0,0 c 0.038,-9.334 0.075,-18.667 0.113,-28.001 -23.321,-1.675 -46.642,-1.715 -69.961,0.025 0.041,9.317 0.082,18.634 0.123,27.952 10.484,-7.269 21.03,-14.452 31.412,-21.865 2.778,-1.984 4.677,-1.739 7.38,0.218 C -20.736,-14.29 -10.329,-7.199 0,0"
             style="fill:#b8b8b8;fill-opacity:1;fill-rule:nonzero;stroke:none"
             id="path146"
             inkscape:connector-curvature="0" /></g><g
           id="g148"
           transform="translate(1369.8339,320.9049)"><path
             d="m 0,0 c -19.786,-0.039 -37.076,15.625 -40.846,36.087 -2.451,13.299 0.362,25.748 5.527,37.887 0.786,1.849 1.675,3.741 3.843,4.332 11.517,3.142 18.909,11.091 24.769,20.947 2.134,3.59 13.151,5.674 16.545,3.373 1.674,-1.136 1.274,-2.542 0.531,-3.944 C 8.342,94.858 6.256,91.066 4.218,87.248 3.035,85.031 1.153,84.706 -0.881,85.62 c -9.269,4.161 -13.968,-2.92 -19.458,-7.896 -1.742,-1.579 -1.716,-3.953 -1.338,-6.123 2.9,-16.641 7.557,-32.735 15.535,-47.704 2.413,-4.527 5.182,-8.87 9.664,-11.858 3.182,-2.122 6.53,-2.45 10.027,-1.662 6.69,1.509 8.177,4.227 5.73,10.59 -3.223,8.382 -6.617,16.699 -9.963,25.033 -0.365,0.908 -0.768,2.399 -1.374,2.521 -6.116,1.234 -2.81,4.462 -1.529,7.1 1.16,2.389 2.605,4.641 3.945,6.942 5.513,9.471 6.415,9.895 17.374,8.502 1.758,-0.223 3.863,-0.553 3.139,-2.768 C 29.1,62.876 32.833,59.04 34.475,54.705 37.358,47.09 40.735,39.65 44.184,32.266 45.791,28.824 45.359,26.477 41.808,25.055 37.31,23.255 34.141,19.849 30.954,16.433 24.879,9.921 18.338,4.126 9.566,1.377 6.158,0.309 2.759,-0.119 0,0"
             style="fill:#2b2b2b;fill-opacity:1;fill-rule:nonzero;stroke:none"
             id="path150"
             inkscape:connector-curvature="0" /></g><g
           id="g152"
           transform="translate(1434.8302,441.2827)"><path
             d="m 0,0 c 0.503,2.468 1.034,5.748 1.86,8.952 1.046,4.054 2.829,6.736 7.777,4.232 2.969,-1.503 4.667,0.656 5.594,3.239 1.406,3.914 2.76,7.852 3.956,11.834 0.817,2.72 2.183,4.001 5.103,2.963 3.627,-1.29 5.682,0.13 6.571,3.783 0.667,2.741 1.407,5.488 2.422,8.114 0.851,2.199 0.394,5.883 3.298,6.113 3.513,0.278 7.213,-0.414 9.462,-4.2 C 49.356,39.453 53.03,34.092 56.517,28.617 62.775,18.791 68.888,8.87 75.322,-0.838 77.324,-3.86 77.435,-6.164 74.9,-8.697 c -1.412,-1.411 -2.69,-2.955 -4.014,-4.452 -5.489,-6.205 -5.445,-6.182 -9.792,1.08 -7.095,11.85 -14.248,23.667 -21.387,35.491 -0.688,1.14 -1.419,2.257 -2.179,3.35 -1.015,1.463 -2.395,2.744 -4.165,1.722 -2.366,-1.367 -0.383,-2.854 0.374,-4.124 8.774,-14.723 17.498,-29.476 26.467,-44.079 1.703,-2.774 1.829,-4.515 -0.602,-6.796 -2.656,-2.494 -5.042,-5.316 -7.29,-8.195 -2.463,-3.152 -4.201,-3.02 -6.145,0.495 -6.2,11.215 -12.532,22.357 -18.813,33.528 -1.631,2.902 -3.264,5.802 -4.889,8.707 -0.904,1.618 -1.795,3.677 -4.08,2.209 -1.89,-1.214 -1.441,-3.166 -0.47,-4.903 3.33,-5.956 6.683,-11.9 10.015,-17.855 5.12,-9.15 10.177,-18.336 15.384,-27.436 1.221,-2.134 0.95,-3.659 -0.729,-5.294 -2.865,-2.789 -5.751,-5.572 -8.406,-8.557 -2.411,-2.711 -3.82,-2.848 -5.637,0.713 C 21.427,-39.154 14.054,-25.347 6.797,-11.48 5.567,-9.129 4.652,-6.59 1.812,-5.55 -0.521,-4.696 0.19,-2.581 0,0"
             style="fill:#2b2b2b;fill-opacity:1;fill-rule:nonzero;stroke:none"
             id="path154"
             inkscape:connector-curvature="0" /></g><g
           id="g156"
           transform="translate(535.9197,548.7023)"><path
             d="m 0,0 c 4.504,2.297 8.089,0.516 11.432,-0.964 9.871,-4.369 16.209,-12.643 21.772,-21.352 5.9,-9.235 10.481,-19.362 19.317,-26.434 0.615,-0.493 1.482,-1.061 1.084,-2.007 -0.493,-1.168 -1.7,-0.885 -2.634,-0.846 -6.665,0.277 -12.063,3.496 -16.923,7.684 -3.15,2.714 -6.003,5.766 -8.102,9.425 -1.691,2.948 -3.449,2.95 -5.834,0.529 -6.458,-6.554 -6.793,-18.007 -0.589,-24.707 3.952,-4.269 7.733,-8.701 11.786,-12.871 2.296,-2.363 1.708,-3.469 -1.063,-4.538 -2.625,-1.012 -4.926,-0.469 -7.081,1.007 -1.086,0.743 -1.986,1.766 -2.941,2.693 -5.138,4.989 -5.277,4.878 -7.347,-2.023 -0.948,-3.163 -2.232,-6.298 -3.85,-9.173 -5.48,-9.736 -14.591,-13.701 -24.946,-9.763 -14.119,5.368 -24.205,14.991 -27.666,30.355 -0.109,0.485 -0.239,0.982 -0.238,1.473 0.005,1.98 -0.921,4.545 0.476,5.78 1.69,1.495 3.513,-0.887 5.316,-1.447 1.423,-0.442 2.768,-1.132 4.155,-1.693 2.928,-1.186 5.135,-2.032 1.9,-5.827 -2.985,-3.501 -2.832,-8.074 -0.369,-12.182 2.422,-4.04 5.595,-6.956 10.743,-6.889 4.166,0.055 6.964,1.768 8.167,5.888 3.188,10.918 4.731,22.056 4.647,33.429 -0.024,3.177 -2.276,5.069 -4.115,7.135 -2.434,2.734 -5.09,5.269 -7.624,7.915 -0.676,0.705 -1.581,1.455 -1.191,2.551 0.411,1.156 1.601,1.052 2.573,1.03 4.698,-0.105 9.36,-0.382 12.934,-4.065 1.495,-1.542 2.95,-2.772 5.048,-0.775 5.416,5.152 11.875,5.552 18.593,3.56 3.749,-1.112 3.641,0.365 2.658,3.036 C 16.324,-13.847 10.941,-4.936 0,0"
             style="fill:#2b2b2b;fill-opacity:1;fill-rule:nonzero;stroke:none"
             id="path158"
             inkscape:connector-curvature="0" /></g><g
           id="g160"
           transform="translate(685.8859,339.8615)"><path
             d="m 0,0 c -0.25,12.502 3.629,23.35 8.993,33.832 3.095,6.048 8.17,7.358 14.227,6.205 3.174,-0.605 7.61,0.562 9.18,-1.997 1.142,-1.861 -3.159,-4.001 -4.643,-6.381 C 19.992,19.203 16.46,5.91 19.071,-8.743 c 0.252,-1.416 0.026,-3.319 2.283,-3.091 2.148,0.218 1.776,2.035 1.813,3.487 0.282,11.012 1.413,21.807 6.097,32.042 2.227,4.865 5.015,7.014 10.673,6.615 9.652,-0.681 9.603,-0.316 6.126,-9.395 -4.602,-12.018 -6.223,-24.409 -3.791,-37.161 0.291,-1.522 0.157,-3.96 1.983,-4.119 2.082,-0.181 2.539,2.149 3.17,3.879 3.756,10.295 5.842,20.652 2.947,31.651 -1.589,6.036 2.542,10.67 8.792,10.751 2.686,0.035 2.534,-2.176 2.959,-3.832 5.529,-21.531 -2.786,-37.912 -19.119,-51.313 -2.183,-1.791 -4.228,-3.751 -6.421,-5.529 -3.931,-3.188 -5.466,-2.82 -7.287,1.829 -1.453,3.712 -2.887,7.448 -4.013,11.267 -0.827,2.804 -2.258,2.99 -4.373,1.637 -3.22,-2.062 -6.528,-4.024 -9.551,-6.351 C 7.872,-29.059 6.219,-27.8 4.752,-24.237 1.48,-16.286 -0.22,-8.08 0,0"
             style="fill:#2b2b2b;fill-opacity:1;fill-rule:nonzero;stroke:none"
             id="path162"
             inkscape:connector-curvature="0" /></g><g
           id="g164"
           transform="translate(811.0966,260.7551)"><path
             d="M 0,0 C 9.162,13.892 12.541,28.981 12.676,44.885 12.73,51.318 11.84,57.827 9.019,63.823 8.389,65.161 7.724,66.981 6.1,66.889 4.205,66.781 4.396,64.592 4.156,63.309 1.288,47.984 -1.487,32.642 -4.19,17.287 c -1.126,-6.391 -1.064,-6.553 -7.443,-4.674 -4.095,1.206 -9.756,0.591 -11.922,3.922 -2.207,3.393 0.735,8.289 1.58,12.467 4.637,22.925 9.523,45.799 14.2,68.716 0.757,3.713 2.08,5.42 6.374,5.764 13.299,1.066 13.233,1.355 10.615,-11.859 C 8.151,86.254 7.45,80.813 6.347,75.454 5.66,72.116 7.012,71.971 9.514,72.929 c 0.931,0.357 1.892,0.632 2.825,0.982 11.767,4.417 9.278,4.84 13.353,-5.821 C 36.047,41 24.298,16.13 6.475,3.381 4.514,1.978 2.168,1.114 0,0"
             style="fill:#2b2b2b;fill-opacity:1;fill-rule:nonzero;stroke:none"
             id="path166"
             inkscape:connector-curvature="0" /></g><g
           id="g168"
           transform="translate(1211.0146,252.9883)"><path
             d="M 0,0 C -0.247,3.078 1.252,5.809 1.732,8.738 4.764,27.244 0.923,44.4 -8.672,60.344 c -1.581,2.628 -3.613,6.586 -6.856,5.329 -2.641,-1.024 -0.496,-5.085 -0.134,-7.593 2.249,-15.59 4.841,-31.132 7.402,-46.676 0.388,-2.36 0.09,-3.889 -2.621,-4.282 -4.106,-0.596 -8.193,-1.327 -12.287,-2.005 -2.377,-0.393 -3.542,0.248 -3.899,3 -3.608,27.797 -7.367,55.575 -11.096,83.357 -0.088,0.654 -0.454,1.292 -0.444,1.935 0.032,2.095 12.812,10.315 14.78,9.528 1.736,-0.695 1.583,-2.307 1.809,-3.781 1.23,-8.032 2.583,-16.046 3.743,-24.088 0.552,-3.829 2.07,-3.697 4.402,-1.399 0.95,0.935 1.818,1.955 2.79,2.864 7.004,6.557 4.937,7.783 12.158,-0.306 C 18.166,57.082 19.763,26.202 5.156,5.282 3.724,3.231 2.292,1.196 -0.025,0.024 L 0,0 Z"
             style="fill:#2b2b2b;fill-opacity:1;fill-rule:nonzero;stroke:none"
             id="path170"
             inkscape:connector-curvature="0" /></g><g
           id="g172"
           transform="translate(908.9395,288.0535)"><path
             d="m 0,0 c 0.643,7.345 -1.569,14.141 -6.08,20.226 -0.95,1.282 -1.867,3.164 -3.846,2.429 -1.774,-0.66 -1.773,-2.605 -1.915,-4.265 -0.227,-2.635 -0.461,-5.268 -0.698,-7.902 -0.814,-9.06 -1.639,-18.119 -2.443,-27.18 -0.407,-4.592 3.51,-5.988 6.395,-7.143 3.363,-1.346 4.214,2.206 5.121,4.645 C -1.2,-13.096 0.456,-6.874 0,0 m -36.981,-40.784 c 0.353,4.14 0.53,8.802 1.22,13.386 0.45,2.987 0.51,5.515 -1.986,7.671 -1.922,1.66 -0.637,3.139 0.848,3.977 2.35,1.324 2.823,3.208 3.088,5.725 1.059,10.05 2.392,20.072 3.681,30.098 0.414,3.21 0.296,6.359 -1.162,9.259 -1.361,2.706 -0.513,4.396 1.957,5.664 0.886,0.455 1.718,1.02 2.617,1.445 9.549,4.512 7.722,5.095 13.33,-4.292 1.587,-2.657 2.642,-3.253 5.256,-2.191 3.376,1.371 6.985,2.121 10.109,4.176 1.767,1.163 3.526,1.364 5.311,-0.54 C 17.672,22.52 19.79,-5.766 11.001,-18.142 6.11,-25.03 -1.284,-28.675 -8.35,-32.698 c -0.794,-0.452 -2.096,-0.66 -2.904,-0.336 -5.898,2.366 -6.481,-1.804 -6.426,-5.603 0.066,-4.677 -2.323,-6.074 -6.327,-6.487 -2.299,-0.236 -4.568,-0.818 -6.831,-1.331 -6.332,-1.435 -6.328,-1.453 -6.143,5.671"
             style="fill:#2b2b2b;fill-opacity:1;fill-rule:nonzero;stroke:none"
             id="path174"
             inkscape:connector-curvature="0" /></g><g
           id="g176"
           transform="translate(1422.0975,395.8174)"><path
             d="m 0,0 c 0.274,-8.295 3.087,-15.238 10.561,-19.647 1.572,-0.928 3.331,-2.047 5.082,-0.649 2.12,1.694 0.218,3.344 -0.504,4.833 C 12.234,-9.473 9.307,-3.489 6.167,2.379 5.088,4.395 4.685,8.36 2.11,7.632 -0.059,7.019 0.099,3.141 0.001,0.5 -0.005,0.333 0,0.167 0,0 m -9.289,-13.755 c 0.348,9.248 2.216,17.012 6.618,24.172 1.418,2.305 4.036,5.076 0.845,7.956 -2.121,1.914 -9.113,1.156 -11.118,-1.169 -1.632,-1.891 -3.073,-3.965 -5.213,-5.313 -1.531,-0.964 -3.223,-1.199 -4.388,0.567 -1.045,1.584 -0.32,3.204 1.13,3.789 6.633,2.674 8.144,9.307 11.48,14.502 1.824,2.84 2.454,6.992 7.183,6.297 5.298,-0.78 10.993,-0.423 14.038,-6.591 5.593,-11.33 11.56,-22.474 17.382,-33.69 0.688,-1.325 1.506,-2.584 2.157,-3.926 0.916,-1.886 4.453,-2.049 3.732,-4.742 -1.284,-4.797 -2.711,-9.654 -5.525,-13.803 -1.424,-2.101 -3.689,-0.907 -5.407,0.099 -3.073,1.801 -4.913,0.785 -6.294,-2.211 -1.462,-3.171 -3.296,-6.18 -4.617,-9.403 -1.332,-3.251 -3.245,-3.379 -6.272,-2.403 -8.344,2.693 -16.819,16.837 -15.731,25.869"
             style="fill:#2b2b2b;fill-opacity:1;fill-rule:nonzero;stroke:none"
             id="path178"
             inkscape:connector-curvature="0" /></g><g
           id="g180"
           transform="translate(669.0184,364.2827)"><path
             d="m 0,0 c -0.027,7.494 -0.9,14.027 -2.83,20.407 -0.873,2.884 -1.823,6.625 -4.959,6.776 -3.256,0.156 -4.064,-3.771 -5.285,-6.415 -6.109,-13.233 -1.622,-25.205 4.462,-36.967 0.581,-1.123 0.849,-2.849 2.441,-2.82 1.948,0.037 2.621,1.765 3.205,3.343 C -0.995,-10.349 0.163,-4.875 0,0 M 16.043,5.585 C 15.746,-7.471 10.805,-17.73 -1.955,-23.26 c -4.566,-1.979 -8.96,-4.31 -13.875,-5.451 -2.032,-0.472 -3.946,-0.411 -4.896,1.301 -6.575,11.856 -12.786,23.878 -9.276,38.175 2.062,8.4 7.05,14.665 14.831,18.363 6.139,2.917 12.544,5.275 18.818,7.911 2.087,0.877 3.927,1.06 4.881,-1.511 3.577,-9.648 7.398,-19.238 7.515,-29.943"
             style="fill:#2b2b2b;fill-opacity:1;fill-rule:nonzero;stroke:none"
             id="path182"
             inkscape:connector-curvature="0" /></g><g
           id="g184"
           transform="translate(1008.9409,291.0902)"><path
             d="m 0,0 c -0.898,-13.854 7.961,-21.798 17.605,-29.271 2.118,-1.641 3.467,-0.685 4.013,1.461 0.399,1.568 0.444,3.299 0.292,4.924 C 20.973,-12.858 17.021,-4.024 10.701,3.702 8.575,6.3 6.232,10.464 2.616,9.274 -1.271,7.995 0.29,3.3 0,0 m -11.907,-13.266 c 0.231,8.358 2.707,15.714 8.146,22.049 4.321,5.032 8.432,10.243 12.67,15.347 1.811,2.182 3.744,2.49 5.909,0.339 9.17,-9.114 17.676,-18.567 18.712,-32.405 0.432,-5.769 -0.229,-11.38 -3.248,-16.279 -4.264,-6.922 -9.124,-13.454 -15.018,-19.147 -1.902,-1.836 -4.106,-2.658 -6.292,-1.16 -11.136,7.637 -20.436,16.575 -20.879,31.256"
             style="fill:#2b2b2b;fill-opacity:1;fill-rule:nonzero;stroke:none"
             id="path186"
             inkscape:connector-curvature="0" /></g><g
           id="g188"
           transform="translate(1061.9247,245.0808)"><path
             d="m 0,0 c -8.776,-0.093 -8.698,-0.092 -8.855,8.489 -0.313,17.113 -0.772,34.223 -1.033,51.337 -0.037,2.425 -0.9,3.875 -2.714,5.398 -2.121,1.781 -4.679,3.77 0.092,6.185 3.19,1.615 2.217,5.062 0.299,7.277 -2.121,2.449 -1.672,4.008 0.599,5.719 5.05,3.802 10.156,7.512 15.942,10.155 2.875,1.313 8.268,-0.484 9.341,-3.242 C 14.742,88.567 12.008,87.683 10.786,86.09 9.372,84.248 7.732,83.86 5.608,85.209 4.069,86.186 2.555,89.115 0.693,87.302 -1.366,85.297 1.736,83.66 2.519,81.833 3.367,79.856 4.278,77.891 4.922,75.845 5.678,73.442 6.946,71.704 9.5,71.103 13.407,70.184 12.684,67.528 10.313,66.486 6.725,64.909 6.986,62.398 7.094,59.572 7.76,42.152 8.542,24.736 9.058,7.312 9.29,-0.542 10.319,0.167 1.996,0.002 1.331,-0.012 0.665,0 0,0"
             style="fill:#2b2b2b;fill-opacity:1;fill-rule:nonzero;stroke:none"
             id="path190"
             inkscape:connector-curvature="0" /></g><g
           id="g192"
           transform="translate(621.9615,354.1808)"><path
             d="m 0,0 c -1.66,1.184 -3.297,2.303 -4.883,3.491 -10.268,7.691 -10.143,7.638 -4.668,19.14 9.656,20.284 19.194,40.624 28.649,61.003 1.197,2.581 2.435,3.86 5.264,2.621 0.449,-0.196 0.966,-0.237 1.452,-0.348 C 38.167,83.084 38.025,83.148 32.77,71.368 22.945,49.34 13.326,27.221 3.541,5.176 2.722,3.331 2.454,0.933 0,0"
             style="fill:#2b2b2b;fill-opacity:1;fill-rule:nonzero;stroke:none"
             id="path194"
             inkscape:connector-curvature="0" /></g><g
           id="g196"
           transform="translate(626.1187,456.3228)"><path
             d="m 0,0 c 4.13,-1.222 8.328,-2.256 12.366,-3.73 2.668,-0.975 1.194,-2.995 0.451,-4.577 -2.965,-6.317 -5.967,-12.616 -8.985,-18.908 -8.841,-18.429 -17.787,-36.809 -26.469,-55.312 -1.716,-3.657 -2.959,-4.052 -5.772,-1.13 -2.285,2.374 -4.938,4.469 -7.682,6.307 -3.064,2.052 -3.621,4.126 -1.891,7.489 11.404,22.171 22.653,44.423 33.949,66.649 C -3.196,-1.565 -2.495,0.248 0,0"
             style="fill:#2b2b2b;fill-opacity:1;fill-rule:nonzero;stroke:none"
             id="path198"
             inkscape:connector-curvature="0" /></g><g
           id="g200"
           transform="translate(768.3987,345.243)"><path
             d="m 0,0 c 0.947,-6.916 4.294,-12.79 7.556,-18.695 3.378,-6.114 6.893,-12.173 9.21,-18.789 2.836,-8.101 0.059,-14.918 -7.815,-18.469 -4.526,-2.04 -9.36,-3.414 -14.097,-4.96 -1.821,-0.594 -3.495,-0.451 -4.734,1.535 -3.222,5.165 -7.776,9.081 -12.657,12.577 -2.798,2.003 -2.031,3.202 0.389,4.687 7.515,4.613 14.236,3.085 20.423,-4.632 1.323,-1.652 2.422,-5.202 4.778,-3.705 1.901,1.208 0.048,4.299 -1.073,6.32 -4.91,8.854 -10.799,17.174 -14.35,26.764 -3.309,8.936 -1.361,15.072 6.571,20.122 1.398,0.89 2.866,1.7 4.381,2.369 12.305,5.438 15.863,3.915 21.181,-8.657 0.884,-2.089 0.128,-3.238 -1.377,-4.137 C 15.4,-9.454 12.684,-12.827 8.634,-9.667 5.197,-6.985 3.014,-3.234 0,0"
             style="fill:#2b2b2b;fill-opacity:1;fill-rule:nonzero;stroke:none"
             id="path202"
             inkscape:connector-curvature="0" /></g><g
           id="g204"
           transform="translate(589.9903,443.975)"><path
             d="m 0,0 -0.12,0 c 0,2.479 0.144,4.97 -0.044,7.435 -0.165,2.171 -1.273,3.008 -3.288,1.484 -4.002,-3.027 -7.462,-6.379 -8.856,-11.509 -1.632,-6.009 -0.639,-7.522 5.535,-7.47 6.656,0.056 6.799,0.206 6.773,7.084 -0.003,0.992 0,1.984 0,2.976 m -0.267,-16.156 c -3.161,0 -6.341,0.212 -9.478,-0.06 -3.169,-0.274 -4.603,-1.962 -3.884,-5.47 1.372,-6.69 3.195,-13.236 5.58,-19.619 1.067,-2.855 0.36,-3.663 -2.697,-3.78 -12.312,-0.469 -13.256,0.172 -16.245,12.083 -2.129,8.481 -2.704,16.937 -1.138,25.641 2.57,14.279 13.781,20.954 25.826,22.287 3.625,0.401 7.264,0.669 10.901,0.953 2.689,0.209 4.386,-0.556 4.583,-3.753 0.428,-6.948 1.089,-13.884 1.777,-20.812 0.503,-5.069 -2.36,-6.926 -6.744,-7.238 -2.813,-0.199 -5.653,-0.037 -8.481,-0.037 0,-0.065 0,-0.13 0,-0.195"
             style="fill:#2b2b2b;fill-opacity:1;fill-rule:nonzero;stroke:none"
             id="path206"
             inkscape:connector-curvature="0" /></g><g
           id="g208"
           transform="translate(1164.1383,347.5613)"><path
             d="m 0,0 c 1.693,-4.422 0.852,-8.266 2.238,-10.886 3.451,-6.523 2.607,-13.171 3.079,-20.036 0.988,-14.348 3.637,-28.578 5.524,-42.868 0.206,-1.553 0.537,-3.017 1.59,-4.094 3.541,-3.617 2.115,-6.378 -1.333,-8.898 -0.937,-0.686 -1.835,-1.425 -2.76,-2.128 -6.896,-5.239 -12.251,-3.15 -13.579,5.736 -1.59,10.644 -2.679,21.364 -3.924,32.059 -0.786,6.748 -1.393,13.518 -2.216,20.262 -0.319,2.616 -1.006,4.963 -4.713,3.485 -1.784,-0.712 -3.234,0.214 -3.627,2.27 -0.245,1.279 -0.86,2.843 0.913,3.391 C -8.602,-18.552 -3.322,-10.918 0,0"
             style="fill:#2b2b2b;fill-opacity:1;fill-rule:nonzero;stroke:none"
             id="path210"
             inkscape:connector-curvature="0" /></g><g
           id="g212"
           transform="translate(1240.5261,328.4802)"><path
             d="m 0,0 c -0.837,0.203 -1.105,-0.335 -1.422,-0.967 -2.228,-4.43 -0.515,-16.296 2.877,-19.996 1.12,-1.223 2.479,-2.16 3.832,-0.833 2.998,2.94 5.097,6.582 5.706,10.717 C 11.288,-9.08 1.814,-0.11 0,0 m -11.398,-24.399 c 0.046,14.318 5.087,24.544 11.178,34.4 0.787,1.274 1.667,2.499 2.347,3.827 1.57,3.069 3.319,3.163 5.78,0.83 3.977,-3.771 8.088,-7.408 12.252,-10.972 3.073,-2.631 3.824,-5.322 1.905,-9.166 -3.219,-6.447 -7.564,-12.133 -11.412,-18.152 -3.345,-5.232 -3.208,-5.995 2.067,-9.458 3.768,-2.474 7.7,-4.677 12.003,-6.034 4.009,-1.264 3.951,-3.249 1.523,-6.028 -0.762,-0.872 -1.396,-1.86 -2.06,-2.816 -6.311,-9.094 -6.647,-9.27 -16.185,-3.698 -11.342,6.625 -17.869,16.543 -19.398,27.267"
             style="fill:#2b2b2b;fill-opacity:1;fill-rule:nonzero;stroke:none"
             id="path214"
             inkscape:connector-curvature="0" /></g><g
           id="g216"
           transform="translate(870.1088,314.3534)"><path
             d="m 0,0 c -1.52,-12.353 -3.046,-24.705 -4.557,-37.059 -0.564,-4.612 -1.157,-9.222 -1.61,-13.845 -0.231,-2.355 -1.018,-3.903 -3.696,-3.43 -4.414,0.781 -8.813,1.644 -13.222,2.45 -2.44,0.446 -3.068,1.633 -2.669,4.21 2.59,16.72 4.979,33.471 7.408,50.215 0.117,0.806 0.315,1.869 -0.073,2.437 -3.708,5.421 0.8,6.763 4.204,8.611 9.383,5.093 9.386,5.076 12.793,-5.269 C -0.532,5.618 0.277,2.911 0,0"
             style="fill:#2b2b2b;fill-opacity:1;fill-rule:nonzero;stroke:none"
             id="path218"
             inkscape:connector-curvature="0" /></g><g
           id="g220"
           transform="translate(1508.9685,489.2816)"><path
             d="m 0,0 c -0.348,2.281 0.958,5.324 -1.882,7.066 -3.127,1.918 -6.689,2.862 -10.254,3.602 -1.957,0.407 -2.715,-0.444 -2.049,-2.558 1.249,-3.964 2.442,-7.977 4.987,-11.304 1.768,-2.312 3.872,-5.703 6.97,-4.606 C 0.571,-6.808 -0.187,-2.99 0,0 m -17.955,12.56 c 0.329,4.294 -0.299,8.609 0.629,12.926 0.591,2.751 1.462,3.765 4.308,2.828 3.149,-1.036 6.429,-1.668 9.607,-2.625 C 5.396,23.034 6.912,20.185 5.582,10.78 4.723,4.711 4.616,-1.461 3.891,-7.554 c -0.49,-4.112 1.708,-5.442 5.115,-5.575 3.81,-0.149 7.621,-0.272 11.425,0.591 2.671,0.606 5.331,0.58 3.843,-3.628 -0.322,-0.909 -0.183,-1.978 -0.278,-2.971 -1.256,-13.229 -6.183,-16.5 -19.265,-12.518 -13.696,4.169 -19.402,14.705 -21.639,27.83 -0.923,5.414 -1.412,10.875 -1.047,16.385"
             style="fill:#2b2b2b;fill-opacity:1;fill-rule:nonzero;stroke:none"
             id="path222"
             inkscape:connector-curvature="0" /></g><g
           id="g224"
           transform="translate(861.1426,336.9055)"><path
             d="m 0,0 c -0.829,0.047 -1.703,-0.058 -2.48,0.167 -2.894,0.839 -6.07,1.693 -7.03,4.909 -0.933,3.128 2.472,3.457 4.113,4.752 2.552,2.013 5.235,2.796 7.697,-0.517 C 3.027,8.331 4.469,7.848 5.636,7.237 7.019,6.514 9.512,6.859 9.498,4.845 9.485,2.975 7.333,2.099 5.789,1.147 4.01,0.05 2.016,-0.038 0,0"
             style="fill:#2b2b2b;fill-opacity:1;fill-rule:nonzero;stroke:none"
             id="path226"
             inkscape:connector-curvature="0" /></g><g
           id="g228"
           transform="translate(1210.9901,253.012)"><path
             d="m 0,0 c -0.05,-0.129 -0.076,-0.277 -0.16,-0.378 -0.048,-0.059 -0.189,-0.042 -0.288,-0.059 0.157,0.138 0.315,0.276 0.472,0.413 C 0.025,-0.024 0,0 0,0"
             style="fill:#2b2b2b;fill-opacity:1;fill-rule:nonzero;stroke:none"
             id="path230"
             inkscape:connector-curvature="0" /></g><g
           id="g232"
           transform="translate(908.9395,288.0535)"><path
             d="m 0,0 c 0.456,-6.874 -1.2,-13.096 -3.466,-19.19 -0.907,-2.439 -1.758,-5.991 -5.121,-4.645 -2.885,1.155 -6.802,2.551 -6.395,7.143 0.804,9.061 1.629,18.12 2.443,27.18 0.237,2.634 0.471,5.267 0.698,7.902 0.142,1.66 0.141,3.605 1.915,4.265 1.979,0.735 2.896,-1.147 3.846,-2.429 C -1.569,14.141 0.643,7.345 0,0"
             style="fill:#f1cd36;fill-opacity:1;fill-rule:nonzero;stroke:none"
             id="path234"
             inkscape:connector-curvature="0" /></g><g
           id="g236"
           transform="translate(1422.0975,395.8174)"><path
             d="M 0,0 C 0,0.167 -0.005,0.333 0.001,0.5 0.099,3.141 -0.059,7.019 2.11,7.632 4.685,8.36 5.088,4.395 6.167,2.379 c 3.14,-5.868 6.067,-11.852 8.972,-17.842 0.722,-1.489 2.624,-3.139 0.504,-4.833 -1.751,-1.398 -3.51,-0.279 -5.082,0.649 C 3.087,-15.238 0.274,-8.295 0,0"
             style="fill:#f1cd36;fill-opacity:1;fill-rule:nonzero;stroke:none"
             id="path238"
             inkscape:connector-curvature="0" /></g><g
           id="g240"
           transform="translate(669.0184,364.2827)"><path
             d="m 0,0 c 0.163,-4.875 -0.995,-10.349 -2.966,-15.676 -0.584,-1.578 -1.257,-3.306 -3.205,-3.343 -1.592,-0.029 -1.86,1.697 -2.441,2.82 -6.084,11.762 -10.571,23.734 -4.462,36.967 1.221,2.644 2.029,6.571 5.285,6.415 3.136,-0.151 4.086,-3.892 4.959,-6.776 C -0.9,14.027 -0.027,7.494 0,0"
             style="fill:#f1cd36;fill-opacity:1;fill-rule:nonzero;stroke:none"
             id="path242"
             inkscape:connector-curvature="0" /></g><g
           id="g244"
           transform="translate(1008.9409,291.0902)"><path
             d="m 0,0 c 0.29,3.3 -1.271,7.995 2.616,9.274 3.616,1.19 5.959,-2.974 8.085,-5.572 6.32,-7.726 10.272,-16.56 11.209,-26.588 0.152,-1.625 0.107,-3.356 -0.292,-4.924 -0.546,-2.146 -1.895,-3.102 -4.013,-1.461 C 7.961,-21.798 -0.898,-13.854 0,0"
             style="fill:#f1cd36;fill-opacity:1;fill-rule:nonzero;stroke:none"
             id="path246"
             inkscape:connector-curvature="0" /></g><g
           id="g248"
           transform="translate(589.9903,443.975)"><path
             d="m 0,0 c 0,-0.992 -0.003,-1.984 0,-2.976 0.026,-6.878 -0.117,-7.028 -6.773,-7.084 -6.174,-0.052 -7.167,1.461 -5.535,7.47 1.394,5.13 4.854,8.482 8.856,11.509 2.015,1.524 3.123,0.687 3.288,-1.484 C 0.024,4.97 -0.12,2.479 -0.12,0 L 0,0 Z"
             style="fill:#f1cd36;fill-opacity:1;fill-rule:nonzero;stroke:none"
             id="path250"
             inkscape:connector-curvature="0" /></g><g
           id="g252"
           transform="translate(1240.5242,328.4829)"><path
             d="M 0,0 C 1.816,-0.113 11.29,-9.083 10.995,-11.081 10.386,-15.216 8.287,-18.859 5.289,-21.799 3.936,-23.126 2.577,-22.188 1.457,-20.966 -1.935,-17.266 -3.648,-5.4 -1.42,-0.969 -1.103,-0.337 -0.835,0.2 0,0"
             style="fill:#f1cd36;fill-opacity:1;fill-rule:nonzero;stroke:none"
             id="path254"
             inkscape:connector-curvature="0" /></g><g
           id="g256"
           transform="translate(1508.9685,489.2816)"><path
             d="m 0,0 c -0.187,-2.99 0.571,-6.808 -2.228,-7.8 -3.098,-1.097 -5.202,2.294 -6.97,4.606 -2.545,3.327 -3.738,7.34 -4.987,11.304 -0.666,2.114 0.092,2.965 2.049,2.558 C -8.571,9.928 -5.009,8.984 -1.882,7.066 0.958,5.324 -0.348,2.281 0,0"
             style="fill:#f1cd36;fill-opacity:1;fill-rule:nonzero;stroke:none"
             id="path258"
             inkscape:connector-curvature="0" /></g></g></g></g></svg>