<?xml version="1.0" encoding="UTF-8" standalone="no"?>
<!-- Generator: Adobe Illustrator 16.0.0, SVG Export Plug-In . SVG Version: 6.00 Build 0)  -->

<svg
   xmlns:dc="http://purl.org/dc/elements/1.1/"
   xmlns:cc="http://creativecommons.org/ns#"
   xmlns:rdf="http://www.w3.org/1999/02/22-rdf-syntax-ns#"
   xmlns:svg="http://www.w3.org/2000/svg"
   xmlns="http://www.w3.org/2000/svg"
   xmlns:sodipodi="http://sodipodi.sourceforge.net/DTD/sodipodi-0.dtd"
   xmlns:inkscape="http://www.inkscape.org/namespaces/inkscape"
   version="1.1"
   id="Layer_1"
   x="0px"
   y="0px"
   width="754.67993"
   height="330.72769"
   viewBox="0 0 754.67993 330.72769"
   enable-background="new 0 0 768 337"
   xml:space="preserve"
   inkscape:version="0.91 r13725"
   sodipodi:docname="secomp.svg"><metadata
     id="metadata13"><rdf:RDF><cc:Work
         rdf:about=""><dc:format>image/svg+xml</dc:format><dc:type
           rdf:resource="http://purl.org/dc/dcmitype/StillImage" /><dc:title></dc:title></cc:Work></rdf:RDF></metadata><defs
     id="defs11" /><sodipodi:namedview
     pagecolor="#ffffff"
     bordercolor="#666666"
     borderopacity="1"
     objecttolerance="10"
     gridtolerance="10"
     guidetolerance="10"
     inkscape:pageopacity="0"
     inkscape:pageshadow="2"
     inkscape:window-width="1056"
     inkscape:window-height="874"
     id="namedview9"
     showgrid="false"
     fit-margin-top="0"
     fit-margin-left="0"
     fit-margin-right="0"
     fit-margin-bottom="0"
     inkscape:zoom="0.40364583"
     inkscape:cx="377.76786"
     inkscape:cy="164.35418"
     inkscape:window-x="639"
     inkscape:window-y="204"
     inkscape:window-maximized="0"
     inkscape:current-layer="Layer_1" /><g
     id="g5"
     transform="translate(-6.2321434,-2.1264793)"><path
       d="m 204.55,277.78 c 3.76,-1.94 8.65,-0.91 11.46,2.18 3.21,4.13 2.35,11.05 -2.21,13.88 -3.84,2.63 -9.71,1.54 -12.21,-2.42 -2.81,-4.32 -1.75,-11.08 2.96,-13.64 m 488.01,-19.05 c -0.02,7.859 0.011,15.71 -0.02,23.569 11.77,0 23.54,0.01 35.31,0 -0.08,-7.859 -0.02,-15.71 -0.04,-23.56 -11.75,0.001 -23.5,0.001 -35.25,-0.009 m -8.04,-10.05 c 2.721,-1.989 6.271,-1.68 9.461,-1.75 12.359,0.12 24.739,-0.17 37.1,0.141 4.67,0.029 8.89,4.31 8.56,9.04 0,9.87 0.091,19.75 -0.04,29.62 0.061,4.939 -4.81,8.63 -9.529,8.42 -12.511,0.06 -25.021,0 -37.53,0.029 0.01,3.86 0.01,7.73 0.02,11.601 -3.939,0 -7.869,0 -11.81,0 0.01,-16.261 0,-32.511 0,-48.761 -0.082,-3.15 1.018,-6.56 3.768,-8.34 m -86.13,7.42 c -0.359,-6.13 6.04,-10.01 11.62,-9.17 15.98,0.021 31.95,0.011 47.931,0.011 3.26,-0.07 6.949,0.5 9.04,3.31 2.34,2.67 2.069,6.46 2.119,9.78 -0.13,11.39 0.17,22.779 -0.17,34.16 -3.859,-0.03 -7.729,-0.03 -11.59,0 -0.07,-11.82 -0.01,-23.641 -0.03,-35.45 -5.92,-0.01 -11.829,0.01 -17.75,-0.01 -0.02,11.819 0.03,23.63 -0.02,35.449 -3.92,-0.01 -7.84,-0.01 -11.75,0 -0.021,-11.819 0.02,-23.64 -0.021,-35.449 -5.85,0.02 -11.699,0 -17.55,0 -0.01,11.819 0.011,23.63 -0.01,35.439 -3.94,0.01 -7.88,-0.01 -11.81,0.021 C 598.36,281.49 598.36,268.79 598.39,256.1 m -59.08,14.41 c 11.78,0 23.57,-0.01 35.36,0 -0.03,-3.93 -0.01,-7.859 -0.02,-11.779 -11.771,0.02 -23.551,0.01 -35.32,0 -0.01,3.929 0,7.849 -0.02,11.779 m -11.75,-14.46 c -0.18,-5 4.381,-9.22 9.29,-9.04 13.431,-0.12 26.87,-0.109 40.311,0 4.91,-0.229 9.51,4.061 9.32,9.03 0.039,12.72 0.029,25.44 0,38.15 -3.94,-0.03 -7.881,-0.021 -11.811,-0.011 -0.03,-3.97 -0.02,-7.939 -0.01,-11.899 -11.78,0.04 -23.561,0.02 -35.351,0.01 0.011,3.97 0.021,7.93 0.011,11.9 -3.931,-0.021 -7.851,-0.021 -11.771,-0.011 -0.019,-12.709 -0.059,-25.419 0.011,-38.129 m -64.8,-8.5 c 2.66,-0.74 5.45,-0.609 8.19,-0.62 14.91,0.021 29.819,0.011 44.729,0.011 0.021,3.93 0.011,7.869 0.011,11.8 -15.69,-0.021 -31.391,0.01 -47.08,-0.01 -0.021,7.859 0.02,15.71 -0.021,23.569 15.71,0 31.41,0.01 47.11,0 -0.021,3.96 0,7.92 -0.03,11.88 -15.88,-0.01 -31.77,-0.02 -47.65,0.011 -2.979,-0.051 -6.34,-0.301 -8.52,-2.61 -2.43,-2.14 -2.82,-5.57 -2.73,-8.62 0.061,-9.02 -0.05,-18.05 0.04,-27.07 0.011,-3.691 2.431,-7.171 5.951,-8.341 m -29.51,-0.61 c 3.86,0 7.71,0 11.57,0 0.029,15.75 0.04,31.5 0,47.239 -3.86,-0.01 -7.71,-0.01 -11.561,0 C 433.22,278.44 433.22,262.69 433.25,246.94 m -70.88,9.1 c -0.12,-5.05 4.52,-9.32 9.51,-9.04 13.42,-0.09 26.851,-0.12 40.271,0.02 4.819,-0.149 9.189,4 9.18,8.841 0.08,12.77 0.02,25.55 0.02,38.319 -3.939,-0.01 -7.88,-0.02 -11.819,0.011 -0.04,-11.82 0,-23.641 -0.021,-35.471 -11.77,0.03 -23.54,0.021 -35.31,0.011 -0.01,11.819 0,23.63 -0.01,35.449 -3.94,-0.01 -7.89,-0.01 -11.83,0 -0.011,-12.72 -0.051,-25.43 0.009,-38.14 m -70.74,-9.1 c 3.93,0 7.86,0 11.78,0 0.01,11.79 0.03,23.569 -0.01,35.359 11.78,0 23.56,0.01 35.34,0 -0.06,-11.79 -0.02,-23.569 -0.02,-35.359 3.92,0 7.85,0 11.78,0 -0.02,12.89 0.1,25.779 -0.05,38.67 -0.09,4.85 -4.63,8.659 -9.37,8.52 -13.71,0.12 -27.44,-0.02 -41.16,0.07 -4.54,-0.601 -8.59,-4.47 -8.27,-9.26 -0.05,-12.67 -0.01,-25.33 -0.02,-38 m -83.53,12.15 c -10.01,-0.12 -20.27,5.42 -24.4,14.76 -3.8,8.891 -3.24,19.95 2.53,27.9 9.58,12.87 30.44,14.37 42.3,3.87 9.11,-8.01 10.05,-22.42 4.6,-32.74 -4.75,-8.99 -15.07,-14.02 -25.03,-13.79 M 196.33,244.1 c 12.25,-3.199 25.68,-0.609 36.25,6.221 10.75,6.779 18.47,18.16 20.7,30.689 0.37,4.98 0.36,9.99 0.04,14.98 -1.85,12.899 -10.42,24.45 -21.89,30.51 -5.21,2.95 -11.08,4.33 -16.8,5.91 -3.81,0.68 -7.8,0.609 -11.54,-0.42 -3.34,-1.08 -6.78,-1.84 -10.09,-3.021 -14.78,-5.63 -26.4,-19.33 -29.1,-34.96 -1,-8.66 -0.81,-17.87 3.09,-25.85 5.44,-11.929 16.57,-21.079 29.34,-24.059 m -71.27,-2.01 c 4.51,-1.57 8.95,1.141 13.2,2.37 5.69,2.24 12.14,3.31 16.92,7.35 4.32,5.381 -1.57,14.11 -8.11,12.721 -6.64,-0.83 -12.9,-3.37 -19.17,-5.59 -2.58,-1.221 -5.55,-2.12 -7.42,-4.391 -2.77,-4.52 -0.56,-10.89 4.58,-12.46 M 53.67,226.92 c 8.64,-2.39 18.81,1.26 23.39,9.1 4.71,9.101 -0.8,21.391 -10.29,24.771 -7.48,3.59 -16.93,2.13 -23.13,-3.32 -4.17,-3.359 -5.43,-9.3 -4.63,-14.38 1,-7.811 7.18,-14.151 14.66,-16.171 m 0.48,-7.87 c -10.24,2.391 -19.67,9.69 -23.32,19.7 -2.79,7.77 -1.43,17.04 4.11,23.28 6.54,7.67 17.5,10.55 27.2,8.689 12.3,-2.17 23.28,-12.18 25.18,-24.729 1.44,-9.33 -3.76,-18.88 -11.79,-23.57 -6.4,-3.66 -14.17,-4.97 -21.38,-3.37 M 49.7,203.89 c 12.01,-2.949 25.08,-1.33 35.92,4.65 8.68,4.8 15.41,12.97 18.46,22.41 3.51,10.43 1.72,22.17 -3.62,31.66 -7.34,13.59 -21.32,22.88 -36.35,25.75 -8.97,1.06 -18.38,1.42 -26.94,-1.94 -12.14,-4.51 -22.68,-14.6 -25.85,-27.4 -2.78,-11.119 -0.39,-23.229 5.86,-32.77 7.25,-11.47 19.53,-19.06 32.52,-22.36 m 692.8,-12.56 c 6.04,-0.84 12.32,-0.84 18.36,0.03 0.02,5.59 0.02,11.17 0,16.76 -3.48,3.52 -5.841,7.97 -9.19,11.59 -2.74,0.88 -5.84,0.2 -8.7,0.16 1.57,-3.7 3.41,-7.271 4.96,-10.98 -1.8,-0.069 -3.569,-0.13 -5.34,-0.239 -0.18,-5.771 -0.07,-11.551 -0.09,-17.321 m 0.16,-60.5 c 5.99,-0.09 11.97,-0.1 17.96,0.01 0.479,5.88 0.25,11.81 0.14,17.71 -6.05,0.36 -12.14,0.34 -18.189,0.02 -0.081,-5.91 -0.221,-11.83 0.089,-17.74 m -94.1,-0.48 c -0.199,8.25 -0.05,16.5 -0.09,24.75 0.04,1.02 -0.21,2.99 1.48,2.65 8.33,0.1 16.67,0.05 25.01,0.03 2.67,0.26 4.771,-1.92 5.64,-4.25 1.92,-5.47 2.021,-11.47 0.65,-17.08 -0.64,-2.99 -2.78,-6.46 -6.24,-6.26 -8.81,0.02 -17.64,-0.25 -26.45,0.16 m -19.38,2.6 c 0.12,-6.71 -0.25,-13.44 0.221,-20.13 15.22,0.04 30.46,-0.25 45.68,0.14 8.64,0.15 17.54,4.53 21.36,12.57 4.609,10.11 4.729,21.96 1.81,32.57 -2.08,7.76 -8.35,14.4 -16.36,15.99 -10.97,2.18 -22.229,0.49 -33.319,1.29 -0.32,10.94 0.149,21.9 -0.25,32.851 -6.15,0.17 -12.32,0.25 -18.46,0 l -0.54,-0.53 C 629,182.79 629.27,157.86 629.18,132.95 m -275.66,-9.34 c 5.43,-6.63 13.74,-10.61 22.3,-10.77 12.24,-0.12 24.49,-0.05 36.74,-0.02 0.301,5.75 0.301,11.52 0,17.27 -11.52,0.15 -23.04,0.01 -34.56,0.07 -3.56,0.07 -6.91,2.25 -8.66,5.31 -2.2,3.39 -2.32,7.57 -2.6,11.48 -0.03,11.02 -0.05,22.04 0.01,33.06 0.07,4.8 3.11,9.86 8.18,10.57 6.65,0.9 13.379,0.43 20.07,0.54 5.91,0.399 11.88,-0.87 17.74,0.29 -0.04,5.609 0.13,11.22 -0.13,16.83 -8.87,0.25 -17.761,0.05 -26.641,0.12 -6.38,-0.091 -13,0.569 -19.09,-1.771 -10.65,-3.24 -18.09,-13.66 -19.43,-24.45 -0.24,-12.71 -0.04,-25.43 -0.1,-38.14 0.071,-7.139 1.171,-14.909 6.171,-20.389 M 242,116.9 c 3.5,-3.16 8.38,-4.03 12.96,-4.11 14.03,-0.02 28.07,0.02 42.11,-0.02 1.48,-0.07 2.94,0.23 4.37,0.6 -0.02,5.49 0.09,10.97 -0.07,16.46 -15.53,0.92 -31.15,-0.24 -46.69,0.59 -0.15,6.74 -0.08,13.48 -0.04,20.22 14.48,1.21 29.11,-0.24 43.61,0.75 0.07,5.74 0.04,11.48 0.02,17.22 -13.39,1.01 -26.89,0.18 -40.32,0.44 -1.32,0.061 -3.8,-0.34 -3.32,1.851 -0.08,6.56 -0.02,13.13 -0.01,19.689 7.02,1.37 14.18,-0.17 21.25,0.44 4.68,0.439 9.36,-0.4 14.04,-0.021 3.06,0.221 6.14,0.17 9.2,-0.16 0.58,0.181 1.75,0.561 2.33,0.75 -0.03,5.54 0.13,11.08 -0.12,16.62 -17.1,0.32 -34.21,0.04 -51.31,0.15 -8,0.399 -15.25,-7.38 -14.68,-15.28 0.03,-20.02 -0.02,-40.04 0.03,-60.06 -0.17,-5.969 2,-12.209 6.64,-16.129 m -87.23,13.14 c 2.69,-9.99 12.66,-18.15 23.22,-17.27 13.89,0.06 27.78,-0.05 41.67,0.06 0.28,5.74 0.28,11.51 0,17.26 -12.91,0.16 -25.82,0.01 -38.73,0.07 -2.01,-0.19 -3.86,0.92 -4.96,2.54 -3.14,3.58 -2.75,8.76 -1.87,13.1 0.67,3.07 3.85,4.74 6.81,4.61 11.05,0.98 22.98,-1.82 33.25,3.55 5.98,3.12 9.16,9.6 10.33,16 1.85,8.44 1.33,17.57 -2.22,25.5 -3.77,7.38 -11.68,13.47 -20.27,12.91 -13.98,-0.021 -27.97,-0.03 -41.96,0.01 -1.54,-0.189 -3.37,0.38 -4.72,-0.56 -0.33,-5.471 -0.05,-10.95 -0.13,-16.431 7.22,-1.22 14.54,0.16 21.81,-0.27 5.33,0.02 10.66,0.01 16,0 2.81,-0.05 5.75,0.33 8.45,-0.7 4.92,-4.02 4.98,-11.04 3.75,-16.76 -1.06,-3.04 -4.24,-4.4 -7.21,-4.76 -9.48,-1.04 -19.23,0.87 -28.56,-1.6 -4.71,-1.39 -9.35,-4.17 -11.74,-8.6 -4.79,-8.659 -5.21,-19.189 -2.92,-28.659 m 428.67,-13.56 c 2.97,-3.02 7.43,-3.21 11.399,-3.6 6.53,-0.3 13.79,-0.06 19.16,4.17 3.56,2.82 4.23,7.7 4.22,11.95 -0.06,26.08 0.12,52.16 -0.08,78.23 -0.22,0.26 -0.649,0.789 -0.87,1.05 -5.96,0.2 -11.92,0.01 -17.869,0.08 -0.45,-1.44 -0.761,-2.931 -0.66,-4.44 0.06,-22.32 -0.01,-44.64 0.04,-66.96 0.02,-1.74 -0.15,-3.48 -0.53,-5.18 -2.59,1.7 -2.64,4.91 -3.14,7.64 -4.12,19.13 -8.141,38.28 -12.23,57.41 -0.82,4.39 -3.43,8.65 -7.78,10.24 -5.85,2 -12.96,1.939 -18.04,-1.971 -2.68,-2.17 -3.47,-5.729 -4.159,-8.93 -4.131,-19.68 -8.32,-39.35 -12.391,-59.05 -0.59,-1.87 -0.62,-4.52 -2.81,-5.27 -0.46,25.46 0.21,50.94 -0.34,76.4 -6.15,0.13 -12.32,0.26 -18.46,-0.03 -0.16,-0.319 -0.471,-0.96 -0.62,-1.27 -0.15,-26.01 -0.021,-52.03 -0.061,-78.04 -0.31,-5.23 1.87,-10.8 6.67,-13.36 6.71,-3.51 14.73,-3.13 22.011,-1.95 5.18,1.01 8.31,5.99 9.359,10.84 4.271,19.36 6.66,39.08 10.16,58.59 0.32,1.55 0.86,3.029 1.41,4.52 1.74,-2.16 1.939,-5.03 2.49,-7.64 2.47,-16.13 4.89,-32.26 7.489,-48.37 1.112,-5.199 1.842,-10.999 5.632,-15.059 m -128.88,13.3 c -3.5,0.37 -7.369,1.22 -9.54,4.26 -2.699,3.73 -2.5,8.54 -2.619,12.92 0.05,10.38 -0.12,20.77 0.08,31.15 0.039,4.89 1.46,10.979 6.68,12.76 7.39,2.36 15.29,1.58 22.93,1.6 4.98,-0.42 11.141,-0.609 14.16,-5.279 3.07,-6.29 1.98,-13.49 2.21,-20.24 -0.2,-9.04 0.47,-18.13 -0.49,-27.14 -0.319,-4.36 -3.399,-8.47 -7.779,-9.35 C 471.77,128.8 463.06,128.99 454.56,129.78 M 444.54,111.8 c 10.4,-1.57 20.95,-0.96 31.43,-0.99 4.99,0.45 10.221,0.29 14.84,2.56 5.591,2.63 10.931,6.84 13.07,12.84 3.021,8.57 4.021,17.7 3.87,26.75 -0.11,10.53 0.55,21.13 -1.01,31.58 -1.29,5.42 -2.07,11.25 -5.45,15.86 -4.59,5.869 -11.71,9.83 -19.21,10.06 -10.68,0.72 -21.43,0.64 -32.11,0.1 -9.069,-0.05 -18.13,-5.159 -22.31,-13.27 -5.61,-13.38 -4.46,-28.18 -4.561,-42.34 -0.1,-10.32 0.54,-20.92 4.61,-30.52 3.311,-6.46 9.951,-10.77 16.831,-12.63 m 261.66,-3.16 c 6.899,-0.1 13.87,-0.44 20.74,0.14 2.609,2.09 3.529,5.41 4.96,8.29 1.83,3.68 2.8,7.76 2.76,11.88 0,21.34 0.03,42.689 -0.021,64.04 -0.25,7.04 -2.649,14.779 -8.13,19.45 -6.75,0.27 -13.52,0.14 -20.27,0.029 2.92,-3.54 6.16,-6.939 7.939,-11.239 2.551,-5.681 2.301,-12.08 2.38,-18.16 -0.02,-16.05 0.011,-32.09 -0.01,-48.13 -0.109,-5.33 -0.25,-10.91 -2.71,-15.76 -1.788,-4.01 -4.858,-7.22 -7.638,-10.54 m -645.82,1.67 c 4.4,-3.19 11.55,-0.71 13.03,4.51 -2.7,8.21 -5.82,16.4 -6.69,25.07 -1.3,12.02 -0.8,24.41 2.86,36 0.95,4.37 3.47,8.66 2.72,13.23 -2.05,4.729 -8.24,6.83 -12.82,4.58 -2.91,-1.26 -3.93,-4.54 -5.18,-7.181 -7.5,-21.14 -7.4,-44.83 0.02,-65.979 1.53,-3.63 2.64,-7.88 6.06,-10.23 m 256.89,-7.82 c 0.74,-1.36 1.9,-2.91 3.66,-2.75 6.4,-0.05 12.8,-0.1 19.2,0.07 -2.6,3.25 -5.53,6.31 -7.35,10.1 -2.6,4.93 -2.81,10.64 -2.97,16.09 -0.01,23 -0.01,45.99 0,68.99 0.16,5.25 0.29,10.75 2.65,15.569 1.82,4.07 4.9,7.36 7.72,10.75 -6.76,0.141 -13.54,0.19 -20.29,0.011 -5.62,-4.95 -8.12,-12.95 -8.2,-20.32 0.02,-27.33 -0.05,-54.66 0.04,-81.99 -0.04,-5.99 2.87,-11.36 5.54,-16.52 M 45.41,89.59 c 3.78,-0.84 8.55,-0.42 10.76,3.2 2.5,3.21 0.12,7.64 -3.1,9.26 -4.26,2.73 -10.62,1.28 -13.23,-3.02 -1.85,-4.19 1.4,-8.61 5.57,-9.44 m 98.57,-17.77 c 3.48,-0.52 7.06,1.94 8.49,5.06 0.59,2.1 -0.61,4.2 -2.49,5.14 -6.53,3.58 -13.87,5.53 -20.12,9.66 -16.23,9.21 -28.87,25.06 -32.96,43.39 -3.52,14.73 -0.66,30.48 6.23,43.81 12.37,23.521 36.92,39.13 62.74,43.72 4.16,0.931 8.62,1.15 12.38,3.32 4.29,2.57 3.8,9.41 -0.21,12.04 -2.81,2.5 -6.73,1.76 -10.12,1.41 -24.54,-3.561 -48.44,-14.58 -65.47,-32.86 C 91,194.92 82.96,180.01 79.79,164.02 c -0.67,-6.98 -1.21,-14.03 -0.56,-21.03 -0.06,-10.56 4.25,-20.52 9.02,-29.72 12.02,-20.55 32.84,-35.41 55.73,-41.45 m 39.34,-2.27 c 1.71,-1.09 3.76,-0.64 5.65,-0.51 14.45,1.23 28.16,6.72 40.94,13.34 3.02,1.67 6.72,3.64 7.18,7.46 -1.06,3.75 -5.99,6.95 -9.59,4.4 -11.95,-5.93 -24.27,-11.62 -37.61,-13.5 -3.62,-0.3 -7.47,-1.99 -8.84,-5.59 -1.13,-2.13 0.73,-4.29 2.27,-5.6 M 20.46,74.46 c 10.23,-7.75 23.74,-9.7 36.22,-8.48 5.11,1.26 11.81,1.81 14.65,6.93 0.42,4.04 -3.86,7.13 -7.57,7.29 C 57.73,79.77 52,76.74 45.85,77.72 38.49,78.93 30.8,82.16 26.72,88.75 c -3.81,5.49 -3.3,13.4 0.98,18.47 2.79,3.8 7.39,5.37 11.11,7.99 1.76,1.28 3.18,3.78 2.12,5.93 -1.32,3.63 -5.41,5.45 -9.05,5.59 C 20.11,123.8 9.83,114.48 7.19,102.4 l -0.81,0.29 C 6.17,99.9 6.19,97.11 6.4,94.33 6.61,94.4 7.03,94.54 7.24,94.61 8.89,86.53 13.79,79.25 20.46,74.46 m 94.6,-15.32 c 4.58,-2.51 11.39,0.45 11.5,5.89 -2.63,4.4 -7.98,5.84 -12.05,8.53 -11.69,6.06 -21.03,15.47 -30.58,24.32 -3.88,4.5 -12.67,1.66 -13.09,-4.27 1.64,-5.59 6.94,-8.92 10.72,-13.01 9.94,-8.84 21.18,-16.39 33.5,-21.46 m 142.51,-1.41 c 9.79,-2.03 20.16,1.7 27.51,8.22 7.34,6.06 10.51,18.4 3.79,26.01 -5.03,6.15 -13.41,8.28 -21.06,7.77 -9.47,-1.3 -19.01,-6.16 -23.87,-14.68 -2.69,-4.5 -3.56,-10.15 -1.93,-15.17 2.4,-6.62 8.96,-10.64 15.56,-12.15 m -50.66,-5.01 c 6.9,1.14 13.62,3.27 19.95,6.23 2.03,1.12 4.87,2.3 5,5 0.44,2.5 -1.61,4.64 -3.92,5.15 -3.76,1.19 -7.39,-0.75 -10.86,-1.96 -4.53,-1.83 -9.43,-2.93 -13.57,-5.61 -1.74,-1.14 -2.86,-3.65 -1.63,-5.54 0.86,-2.03 3.16,-2.58 5.03,-3.27 M 166.48,14.96 c -0.96,-2.54 1.62,-4.64 3.65,-5.65 4.91,-1.06 9.45,1.68 13.28,4.41 7.64,5.59 13.11,14.81 12.73,24.45 -1.12,12.51 -12.36,21.64 -24.02,24.18 -7.95,1.08 -16.14,1.47 -24.05,-0.18 -10.81,-2.95 -21.23,-9.65 -26.23,-19.97 -2.39,-4.57 -2.54,-9.95 -1.63,-14.92 1.7,-6.37 6.12,-11.69 11.33,-15.57 4.35,-2.12 11.25,-0.06 11.97,5.36 -2.07,3.69 -5.44,6.5 -7.2,10.37 -1.9,5.14 -0.8,11.37 3.02,15.38 6.88,7.42 17.94,9.97 27.64,7.78 6.03,-1.08 10.95,-5.65 13.48,-11.08 1.75,-4.57 0.12,-9.63 -2.37,-13.59 -2.85,-4.67 -8.72,-6.35 -11.6,-10.97 M 149.73,2.51 c 4.36,-1.37 9.6,1.03 10.7,5.61 1.48,6.23 3.38,12.44 3.8,18.86 0.14,2.87 -2.78,4.48 -5.2,5.03 -3.05,0.84 -5.99,-1.01 -8.36,-2.72 -2.07,-6.97 -3.71,-14.12 -4.52,-21.34 -0.51,-2.56 2.09,-3.88 3.58,-5.44"
       id="path7"
       inkscape:connector-curvature="0"
       style="fill:#ffffff" /></g></svg>