<?xml version="1.0" encoding="UTF-8" standalone="no"?>
<!-- Created with Inkscape (http://www.inkscape.org/) -->

<svg
   xmlns:dc="http://purl.org/dc/elements/1.1/"
   xmlns:cc="http://creativecommons.org/ns#"
   xmlns:rdf="http://www.w3.org/1999/02/22-rdf-syntax-ns#"
   xmlns:svg="http://www.w3.org/2000/svg"
   xmlns="http://www.w3.org/2000/svg"
   xmlns:sodipodi="http://sodipodi.sourceforge.net/DTD/sodipodi-0.dtd"
   xmlns:inkscape="http://www.inkscape.org/namespaces/inkscape"
   width="186.78568mm"
   height="88.706627mm"
   viewBox="0 0 661.839 314.31482"
   id="svg4444"
   version="1.1"
   inkscape:version="0.91 r13725"
   sodipodi:docname="see.svg">
  <defs
     id="defs4446" />
  <sodipodi:namedview
     id="base"
     pagecolor="#181c24"
     bordercolor="#666666"
     borderopacity="1.0"
     inkscape:pageopacity="0"
     inkscape:pageshadow="2"
     inkscape:zoom="0.7"
     inkscape:cx="98.028308"
     inkscape:cy="236.88344"
     inkscape:document-units="px"
     inkscape:current-layer="layer1"
     showgrid="false"
     inkscape:snap-object-midpoints="false"
     inkscape:snap-center="false"
     inkscape:window-width="1920"
     inkscape:window-height="1084"
     inkscape:window-x="0"
     inkscape:window-y="0"
     inkscape:window-maximized="1"
     fit-margin-top="0"
     fit-margin-left="0"
     fit-margin-right="0"
     fit-margin-bottom="0" />
  <metadata
     id="metadata4449">
    <rdf:RDF>
      <cc:Work
         rdf:about="">
        <dc:format>image/svg+xml</dc:format>
        <dc:type
           rdf:resource="http://purl.org/dc/dcmitype/StillImage" />
        <dc:title></dc:title>
      </cc:Work>
    </rdf:RDF>
  </metadata>
  <g
     inkscape:groupmode="layer"
     id="layer2"
     inkscape:label="Camada 2"
     transform="translate(-52.459693,-377.07891)" />
  <g
     inkscape:label="Camada 1"
     inkscape:groupmode="layer"
     id="layer1"
     transform="translate(-52.459693,-377.07891)">
    <g
       id="g5615">
      <g
         id="g16101">
        <path
           inkscape:connector-curvature="0"
           style="fill:#ffffff;fill-opacity:1;fill-rule:evenodd;stroke:none"
           d="m 184.98828,409.16797 c -12.97875,0.1125 -25.35711,3.07633 -36.41211,8.48633 -23.05125,11.28375 -40.2932,32.81875 -45.8457,64.15625 -5.551256,31.33875 2.75484,65.86484 21.08984,93.96484 9.15125,14.02875 20.64531,26.46422 33.78907,36.29297 12.99375,9.7225 27.73476,16.9925 42.97851,20.78125 15.25,3.79375 29.45781,3.91664 42.53906,1.11914 11.65515,-2.49574 22.23033,-7.41106 31.3711,-14.25391 -4.00843,-3.17135 -7.7434,-6.78659 -11.1543,-10.86523 -16.46089,10.61712 -37.45613,14.47196 -61.01758,8.35156 -26.28,-6.82625 -50.23078,-25.4339 -65.89453,-49.53515 C 120.76789,543.56477 113.44875,513.87633 118,486.83008 c 4.55125,-27.04125 19.29531,-45.98031 39.00781,-56.03906 18.945,-9.66875 42.76031,-10.48055 66.07031,-1.31055 18.39333,7.23698 34.0702,19.4234 46.35352,34.43164 1.78976,-3.2743 3.86943,-6.33721 6.22656,-9.1582 -4.73092,-5.61039 -9.86892,-10.86734 -15.3789,-15.64844 -10.6,-9.19875 -22.56735,-16.78875 -35.83985,-22.125 -13.27125,-5.3325 -26.77617,-7.915 -39.45117,-7.8125 z"
           id="path14049" />
        <path
           inkscape:connector-curvature="0"
           style="fill:#127bca;fill-opacity:1;fill-rule:evenodd;stroke:none"
           d="m 99.050781,543.77734 c 4.896409,14.98466 12.224369,29.34547 21.546879,42.35352 3.58896,5.00552 7.94887,9.90915 12.76953,14.60547 l -25.16407,23.33398 C 101.90528,617.94463 96.231172,611.54242 91.599609,604.99805 79.693605,588.1784 70.433185,569.59692 64.388672,550.14648 l 34.662109,-6.36914 z"
           id="path14043" />
        <path
           inkscape:connector-curvature="0"
           style="fill:#ffffff;fill-opacity:1;fill-rule:evenodd;stroke:none"
           d="m 173.0293,383.77148 c -5.93051,-0.0137 -11.83774,0.29549 -17.47461,1.00196 l 8.71484,19.46679 c 8.32963,-1.19539 17.39098,-1.35321 26.04492,-0.79882 3.08217,0.19801 5.92191,0.41937 8.63867,0.67773 l -2.56445,-18.88672 c -3.20809,-0.34763 -6.56272,-0.65339 -10.20508,-0.93164 -4.32749,-0.33187 -8.74695,-0.51908 -13.15429,-0.5293 z"
           id="path14071" />
        <path
           inkscape:connector-curvature="0"
           style="fill:#ffffff;fill-opacity:1;fill-rule:evenodd;stroke:none"
           d="m 148.47266,385.91211 c -4.28837,0.85163 -8.33729,1.97604 -12.00977,3.42383 -10.43266,4.10793 -20.12925,9.89237 -28.73633,17.2539 l 16.33399,16.95704 c 7.31927,-6.50072 15.60594,-11.63748 24.55468,-15.30079 2.9483,-1.2083 6.18832,-2.17037 9.61719,-2.92382 l -9.75976,-19.41016 z"
           id="path14069" />
        <path
           inkscape:connector-curvature="0"
           style="fill:#ffffff;fill-opacity:1;fill-rule:evenodd;stroke:none"
           d="m 202.87305,386.03906 1.6875,18.70313 c 7.32924,0.97789 13.73116,2.51067 20.64257,5.32617 10.99127,4.4725 5.78593,2.52398 8.61719,3.89648 0.17172,-1.67754 0.3453,-3.32591 0.51953,-4.99414 -0.58787,-0.70773 -1.14536,-1.44061 -1.66015,-2.20312 -2.78551,-4.12475 -4.37047,-8.98764 -4.41602,-13.72461 -0.49386,-0.20798 -0.56178,-0.24053 -1.13281,-0.48047 -7.99569,-3.35487 -15.54038,-5.25304 -24.25781,-6.52344 z"
           id="path14081" />
        <path
           inkscape:connector-curvature="0"
           style="fill:#ffffff;fill-opacity:1;fill-rule:evenodd;stroke:none"
           d="m 263.27344,413.90234 c -0.27231,0.24865 -0.53891,0.50306 -0.82813,0.73047 -1.88585,1.48228 -4.11537,2.53958 -6.5957,3.05274 -0.21381,0.0442 -0.43154,0.0789 -0.64844,0.11523 -0.26606,2.92756 -0.53647,5.82148 -0.80078,8.77149 9.2792,6.90674 17.74969,14.97118 25.24805,23.86523 3.51491,-3.43009 7.47515,-6.4226 11.78711,-8.95508 -8.36126,-10.19604 -17.81561,-19.50978 -28.16211,-27.58008 z"
           id="path14079" />
        <path
           inkscape:connector-curvature="0"
           style="fill:#ffffff;fill-opacity:1;fill-rule:evenodd;stroke:none"
           d="m 240.07031,414.14648 c -0.15231,1.5287 -0.30286,3.01921 -0.45508,4.55274 -1.3425,13.51125 -2.73828,27.23289 -4.14453,41.21289 -0.29375,0.0875 -0.60539,0.13552 -0.86914,0.19922 -15.6975,3.2325 -31.91859,6.5732 -48.65234,9.9707 -0.65875,0.1425 -1.28352,0.26266 -1.94727,0.41016 0.0975,-0.71375 0.19938,-1.42617 0.29688,-2.13867 0.9325,-7.16375 1.85578,-14.26383 2.76953,-21.29883 -6.08374,-2.28125 -12.17259,-4.52649 -18.33008,-6.86524 -2.495,17.5 -5.0057,35.30289 -7.56445,53.43164 -0.0975,0.655 -0.19441,1.3083 -0.28321,1.89453 -0.64875,-0.20999 -1.30257,-0.42 -1.92382,-0.625 -17.22625,-5.7375 -34.8493,-11.6114 -52.8418,-17.59765 -6.03267,-2.00598 -12.386137,-4.10758 -18.521484,-6.14063 0.274474,1.8355 0.393559,3.70133 0.289062,5.58594 -0.113926,2.0533 -0.479222,4.00914 -1.05664,5.83399 5.736176,1.85898 11.696786,3.78871 17.335942,5.62109 18.16997,5.9075 35.9364,11.69898 53.22265,17.33398 0.65875,0.205 1.31344,0.40946 1.99219,0.65821 -0.11625,0.615 -0.21586,1.26422 -0.31836,1.91797 -2.68,18.95125 -5.41016,38.22476 -8.22266,57.85351 6.70875,1.91875 13.29758,3.81149 19.92383,5.67774 1.05499,-8.0375 2.09478,-15.98204 3.13477,-23.92579 0.0775,-0.78125 0.18461,-1.55718 0.28711,-2.30468 0.23875,0.24 0.50695,0.48781 0.75195,0.72656 0.22875,0.26875 0.47484,0.50867 0.77734,0.73242 0.0775,0.0888 0.15578,0.18144 0.23828,0.24024 6.02125,5.9125 12.04063,11.79617 18.04688,17.60742 -3.2375,4.09625 -6.45109,8.17976 -9.74609,12.29101 7.10875,1.9625 14.15084,3.96868 21.09961,5.95117 3.43249,0.98127 6.89367,1.96797 10.32617,2.94922 2.115,2.085 4.23384,4.19375 6.39257,6.25 -1.68,16.47375 -3.37164,33.29985 -5.11914,50.3711 -0.38963,3.80375 -0.80157,7.77021 -1.19726,11.60547 0.48435,-0.0407 0.97193,-0.07 1.46484,-0.0742 2.82998,-0.0229 5.84551,0.55354 8.8086,1.74414 0.0752,0.0302 0.14786,0.0648 0.22265,0.0957 0.82726,-8.50069 1.81463,-18.56613 2.52344,-25.93945 1.82125,-18.90625 3.25672,-33.75485 3.98047,-41.3086 -3.6725,-3.57375 -7.35985,-7.17343 -11.02734,-10.83593 -1.3575,-3.6475 -2.70993,-7.25994 -4.07618,-10.95117 -2.725,-7.30877 -5.42992,-14.57071 -8.07617,-21.84571 -3.07625,3.89125 -6.2,7.81844 -9.28125,11.77344 -7.53,-7.38375 -15.09367,-14.8 -22.70117,-22.28125 -0.61625,-0.55625 -1.20055,-1.10273 -1.74805,-1.70898 0.1025,-0.74127 0.18071,-1.52704 0.28321,-2.26954 2.05,-15.65875 4.08609,-31.0175 6.05859,-46.125 0.0988,-0.7125 0.20133,-1.4242 0.29883,-2.13672 21.40125,-4.65375 41.92898,-9.0832 61.70898,-13.3457 1.42999,-14.94625 2.79156,-29.55695 4.16406,-43.9707 0.22928,-2.42241 0.45204,-4.7716 0.68165,-7.18164 -0.4812,-0.0809 -0.96654,-0.17265 -1.45899,-0.29102 -2.6414,-0.63431 -5.20333,-1.79276 -7.51758,-3.33008 z"
           id="path14067" />
        <path
           inkscape:connector-curvature="0"
           style="fill:#ffffff;fill-opacity:1;fill-rule:evenodd;stroke:none"
           d="m 102.29688,411.5957 c -1.12432,1.1138 -2.23204,2.25039 -3.310552,3.42383 -9.324752,10.13799 -16.939542,22.48502 -22.210937,36.81055 0.05774,0.0494 0.120349,0.0928 0.177734,0.14258 2.34185,2.03207 4.390477,4.44101 6.060547,7.06836 0.722583,1.13704 1.362468,2.32385 1.941406,3.5371 4.031131,1.35899 8.094723,2.7276 12.091797,4.07618 4.707875,-15.5019 12.504405,-28.5163 22.451175,-38.73828 L 102.29688,411.5957 Z"
           id="path14065" />
        <path
           inkscape:connector-curvature="0"
           style="fill:#127bca;fill-opacity:1;fill-rule:evenodd;stroke:none"
           d="m 83.224609,489.32227 c -0.763052,0.92997 -1.60118,1.77964 -2.517578,2.52539 -2.16825,1.76385 -4.732234,3.02217 -7.583984,3.63281 -2.92068,0.62461 -6.093147,0.59704 -9.498047,-0.25 -2.488752,-0.61856 -4.915701,-1.65761 -7.175781,-3.01758 -0.645946,16.53678 1.30771,33.28461 5.583984,49.69141 L 97.125,537.38672 c -4.09759,-14.77833 -5.824396,-30.04971 -4.759766,-45.14063 -3.003917,-0.96189 -6.110823,-1.95491 -9.140625,-2.92382 z"
           id="path14059" />
        <path
           inkscape:connector-curvature="0"
           style="fill:#127bca;fill-opacity:1;fill-rule:evenodd;stroke:none"
           d="m 137.91211,604.97852 -23.80859,24.58593 c 9.77861,8.74098 20.65983,16.78613 31.40625,23.66211 19.8675,12.71 33.81734,20.28781 50.12109,23.85156 1.54238,0.33774 1.91483,0.41273 3.0293,0.6543 -0.2802,-2.51219 -0.22935,-5.02856 0.20117,-7.45898 1.17208,-6.61505 4.67788,-11.26901 9.40625,-13.88672 0.44812,-4.22453 0.91135,-8.52024 1.35351,-12.70703 -3.32,-0.46875 2.72461,1.12359 -10.02539,-1.97266 -12.74875,-3.095 -23.26015,-9.00781 -38.28515,-18.85156 -7.98738,-5.23616 -16.0795,-11.3074 -23.39844,-17.87695 z"
           id="path14057" />
        <path
           inkscape:connector-curvature="0"
           style="fill:#ffffff;fill-opacity:1;fill-rule:evenodd;stroke:none"
           d="m 281.71289,624.7793 c -13.02788,10.82179 -29.18395,17.78994 -47.36523,19.5664 -0.49096,5.10176 -0.96815,10.3028 -1.44727,15.48242 0.38168,0.3007 0.76967,0.59359 1.13672,0.91211 2.14905,1.86478 4.03561,4.05648 5.625,6.4336 25.40042,-3.37727 47.14756,-15.34643 63.1582,-33.17188 -7.47034,-2.12181 -14.5672,-5.17517 -21.10742,-9.22265 z"
           id="path3358-0" />
        <path
           inkscape:connector-curvature="0"
           id="path3356-3-5"
           style="fill:#127bca;fill-opacity:1;fill-rule:evenodd;stroke:none"
           d="m 224.84847,664.24355 c 1.64602,0.66179 3.1302,1.60293 4.44479,2.74373 1.30079,1.12873 2.43928,2.46704 3.36692,3.9264 1.85299,2.91582 2.90357,6.32631 2.70934,9.82951 -0.1944,3.50364 -1.67875,6.51093 -3.99136,8.3929 -1.20437,0.97973 -2.6281,1.67857 -4.21212,2.01776 -1.6223,0.34694 -3.38444,0.33175 -5.2757,-0.13875 -1.89051,-0.46986 -3.71868,-1.37147 -5.33014,-2.57724 -1.63005,-1.21894 -3.05549,-2.76125 -4.1904,-4.50106 -2.27387,-3.48491 -3.30384,-7.76677 -2.61538,-11.65334 0.6886,-3.8864 2.82683,-6.55696 5.6856,-7.95635 1.37101,-0.67094 2.90604,-1.03849 4.51563,-1.05246 1.57193,-0.0127 3.24694,0.30758 4.89282,0.9689 z"
           sodipodi:nodetypes="ccccccccccccc" />
        <path
           inkscape:connector-curvature="0"
           id="path3356-3-3-4"
           style="fill:#127bca;fill-opacity:1;fill-rule:evenodd;stroke:none"
           d="m 67.76459,455.47661 c 1.64602,0.66179 3.1302,1.60293 4.44479,2.74373 1.30079,1.12873 2.43928,2.46704 3.36692,3.9264 1.85299,2.91582 2.90357,6.32631 2.70934,9.82951 -0.1944,3.50364 -1.67875,6.51093 -3.99136,8.3929 -1.20437,0.97973 -2.6281,1.67857 -4.21212,2.01776 -1.6223,0.34694 -3.38444,0.33175 -5.2757,-0.13875 -1.89051,-0.46986 -3.71868,-1.37147 -5.33014,-2.57724 -1.63005,-1.21894 -3.05549,-2.76125 -4.1904,-4.50106 -2.27387,-3.48491 -3.30384,-7.76677 -2.61538,-11.65334 0.6886,-3.8864 2.82683,-6.55696 5.6856,-7.95635 1.37101,-0.67094 2.90604,-1.03849 4.51563,-1.05246 1.57193,-0.0127 3.24694,0.30758 4.89282,0.9689 z"
           sodipodi:nodetypes="ccccccccccccc" />
        <path
           inkscape:connector-curvature="0"
           id="path3356-3-2-6"
           style="fill:#127bca;fill-opacity:1;fill-rule:evenodd;stroke:none"
           d="m 251.18838,384.06841 c 1.43164,0.55615 2.72252,1.34705 3.86589,2.30574 1.13138,0.94855 2.12159,2.07322 2.92841,3.29962 1.61166,2.45037 2.52541,5.31643 2.35648,8.26041 -0.16908,2.94435 -1.46011,5.47158 -3.47152,7.05313 -1.04752,0.82333 -2.28582,1.41061 -3.66354,1.69566 -1.41101,0.29155 -2.94365,0.27879 -4.58859,-0.1166 -1.64429,-0.39486 -3.23435,-1.15254 -4.63594,-2.16583 -1.41775,-1.02436 -2.65754,-2.32047 -3.64464,-3.78255 -1.97772,-2.92861 -2.87354,-6.52695 -2.27475,-9.7931 0.59892,-3.266 2.45866,-5.51026 4.94511,-6.68626 1.19244,-0.56384 2.52755,-0.87271 3.92751,-0.88445 1.3672,-0.0107 2.82406,0.25848 4.25558,0.81423 z"
           sodipodi:nodetypes="ccccccccccccc" />
      </g>
      <g
         id="g14059">
        <path
           inkscape:connector-curvature="0"
           id="path3364-3"
           style="fill:#127bca;fill-opacity:1;fill-rule:nonzero;stroke:none"
           d="m 336.62744,591.10266 c -2.08999,0.36125 -4.33499,0.55125 -6.72375,0.55125 -15.53125,0 -24.985,-7.3725 -32.07499,-17.5 l -26.33751,21.21625 c 11.48,16.20625 31.06375,27.685 59.42876,27.685 10.1025,0 19.46749,-1.60625 27.6175,-4.73125 l -21.91001,-27.22125 z" />
        <path
           inkscape:connector-curvature="0"
           id="path3366-7"
           style="fill:#ffffff;fill-opacity:1;fill-rule:nonzero;stroke:none"
           d="m 342.39995,517.93391 -8.78,-3.71625 c -15.195,-6.7525 -21.94875,-10.80625 -21.94875,-21.5525 0,-8.4425 6.75375,-15.1375 17.2225,-15.1375 9.11625,0 15.19,3.32125 20.9325,12.1 l 25.3225,-20.87875 c -11.1425,-15.86875 -26.33375,-22.285 -46.255,-22.285 -31.74375,0 -52.0025,20.25875 -52.0025,46.875 0,28.98375 16.885,42.43625 42.54375,53.52 l 8.78,3.71625 c 16.21125,7.09 26.00124,11.48 26.00124,23.57875 0,3.4625 -1.10375,6.60125 -3.14999,9.23375 l 21.685,26.94875 c 10.55624,-8.39375 16.91875,-20.81125 16.91875,-36.85625 0,-29.60375 -16.885,-42.77375 -47.27,-55.54625" />
        <path
           inkscape:connector-curvature="0"
           id="path3368-4"
           style="fill:#ffffff;fill-opacity:1;fill-rule:nonzero;stroke:none"
           d="m 578.96245,481.23891 81.37625,0 0,-34.775 -116.1525,0 0,176.59125 116.1525,0 0,-34.775 -81.37625,0 0,-36.1325 51.665,0 0,-34.77625 -51.665,0 0,-36.1325 z" />
        <path
           inkscape:connector-curvature="0"
           id="path3370-5"
           style="fill:#ffffff;fill-opacity:1;fill-rule:nonzero;stroke:none"
           d="m 443.62994,481.23891 81.3725,0 0,-34.775 -116.1525,0 0,176.59125 116.1525,0 0,-34.775 -81.3725,0 0,-36.1325 51.66001,0 0,-34.77625 -51.66,0 0,-36.1325 z" />
        <path
           inkscape:connector-curvature="0"
           id="path3372-2"
           style="fill:#127bca;fill-opacity:1;fill-rule:evenodd;stroke:none"
           d="m 679.5187,588.28016 34.78,0 0,34.775 -34.78,0 0,-34.775 z" />
      </g>
      <path
         d="m 321.2612,636.57141 c -4.12125,0 -6.07876,2.63125 -6.07876,6.865 0,7.73 9.17501,8.315 9.17501,14.43375 0,2.475 -1.02,3.92625 -3.2125,3.92625 -2.1975,0 -3.21875,-1.45125 -3.21875,-3.92625 l 0,-1.72375 -2.86625,0 0,1.5675 c 0,4.16 1.96375,6.865 6.1625,6.865 4.195,0 6.19625,-2.705 6.19625,-6.865 0,-7.725 -9.21875,-8.315 -9.21875,-14.4725 0,-2.4325 0.9425,-3.8825 3.14,-3.8825 2.1975,0 3.135,1.45 3.135,3.92125 l 0,0.90375 2.905,0 0,-0.7475 c 0,-4.155 -1.9625,-6.865 -6.11875,-6.865 z m 11.88499,12.43625 0,-9.375 8.23751,0 0,-2.78375 -11.29875,0 0,27.45625 11.29875,0 0,-2.7825 -8.23751,0 0,-9.77125 6.70376,0 0,-2.74375 -6.70376,0 z m 25.5325,-6.7875 0,22.085 2.905,0 0,-27.45625 -4.2775,0 -4.35,21.925 -4.5125,-21.925 -4.27625,0 0,27.45625 2.665,0 0,-21.88875 4.55125,21.85 2.94375,0 4.35125,-22.04625 z m 16.08375,16.55375 1.06,5.53125 3.06125,0 -5.25875,-27.45625 -4.43375,0 -5.25375,27.45625 2.8225,0 1.05875,-5.53125 6.94375,0 z m -3.52999,-18.4725 3.1,15.845 -6.1175,0 3.0175,-15.845 z m 12.74874,1.8025 7.02125,22.20125 3.17875,0 0,-27.45625 -2.71,0 0,19.84375 -6.3525,-19.84375 -3.88125,0 0,27.45625 2.74375,0 0,-22.20125 z m 23.37876,16.67 1.06,5.53125 3.05624,0 -5.25375,-27.45625 -4.43375,0 -5.25375,27.45625 2.8225,0 1.06,-5.53125 6.9425,0 z m -3.53,-18.4725 3.09625,15.845 -6.11875,0 3.0225,-15.845 z m 16.1225,-3.4525 0,27.45625 6.43125,0 c 4.27749,0 6.235,-2.5875 6.235,-6.78625 l 0,-13.8475 c 0,-4.23375 -1.9575,-6.8225 -6.235,-6.8225 l -6.43125,0 z m 3.0575,24.67375 0,-21.89 3.295,0 c 2.2375,0 3.29625,1.3725 3.29625,3.8825 l 0,14.12 c 0,2.51 -1.05875,3.8875 -3.25625,3.8875 l -3.335,0 z m 15.5325,-12.515 0,-9.375 8.23625,0 0,-2.78375 -11.29375,0 0,27.45625 11.29375,0 0,-2.7825 -8.23625,0 0,-9.77125 6.70875,0 0,-2.74375 -6.70875,0 z m 20.2,0 0,-9.375 8.2375,0 0,-2.78375 -11.295,0 0,27.45625 11.295,0 0,-2.7825 -8.2375,0 0,-9.77125 6.70875,0 0,-2.74375 -6.70875,0 z m 13.76875,-6.90375 7.0225,22.20125 3.17875,0 0,-27.45625 -2.70625,0 0,19.84375 -6.35625,-19.84375 -3.8825,0 0,27.45625 2.74375,0 0,-22.20125 z m 19.25875,-5.5325 c -4.195,0 -6.1575,2.74875 -6.1575,6.90375 l 0,14.2 c 0,4.16 1.9625,6.90375 6.1575,6.90375 4.2375,0 6.20125,-2.74375 6.20125,-6.90375 l 0,-8.08125 -5.72875,0 0,2.74875 2.8225,0 0,5.48875 c 0,2.475 -0.97625,3.965 -3.2125,3.965 -2.1975,0 -3.2175,-1.49 -3.2175,-3.965 l 0,-14.5125 c 0,-2.47 1.02,-3.96 3.2175,-3.96 2.23625,0 3.2125,1.49 3.2125,3.96 l 0,2.51 2.90625,0 0,-2.35375 c 0,-4.155 -1.96375,-6.90375 -6.20125,-6.90375 z m 12.1625,12.43625 0,-9.375 8.2375,0 0,-2.78375 -11.29875,0 0,27.45625 11.29875,0 0,-2.7825 -8.2375,0 0,-9.77125 6.70875,0 0,-2.74375 -6.70875,0 z m 13.77,-6.90375 7.02125,22.20125 3.17375,0 0,-27.45625 -2.705,0 0,19.84375 -6.3525,-19.84375 -3.8875,0 0,27.45625 2.75,0 0,-22.20125 z m 23.13875,9.84375 0,12.3575 3.0625,0 0,-27.45625 -3.0625,0 0,12.35375 -6.7475,0 0,-12.35375 -3.05625,0 0,27.45625 3.05625,0 0,-12.3575 6.7475,0 z m 16.24125,6.82625 1.05875,5.53125 3.06125,0 -5.25875,-27.45625 -4.4325,0 -5.255,27.45625 2.8225,0 1.06,-5.53125 6.94375,0 z m -3.53125,-18.4725 3.10125,15.845 -6.12375,0 3.0225,-15.845 z m 10.045,-3.4525 0,27.45625 3.05625,0 0,-11.7275 2.1575,0 c 2.54875,0 4,0.98125 4,4.07625 l 0,4.31625 c 0,1.84625 0.15625,2.54875 0.5125,3.335 l 3.095,0 c -0.5075,-0.9425 -0.54625,-2.08 -0.54625,-3.295 l 0,-4.2725 c 0,-2.945 -0.9425,-4.98625 -3.4525,-5.7275 2.35375,-0.7475 3.41375,-2.6325 3.41375,-5.65 l 0,-2.23625 c 0,-4.0775 -1.8075,-6.275 -6.11875,-6.275 l -6.1175,0 z m 3.05625,12.945 0,-10.16125 2.98375,0 c 2.275,0 3.17375,1.29375 3.17375,3.765 l 0,2.62625 c 0,2.98375 -1.45125,3.77 -3.8825,3.77 l -2.275,0 z m 12.3975,-12.945 0,27.45625 3.05625,0 0,-27.45625 -3.05625,0 z m 16.235,21.925 1.06,5.53125 3.06125,0 -5.25875,-27.45625 -4.42875,0 -5.25875,27.45625 2.8275,0 1.05875,-5.53125 6.93875,0 z m -3.53,-18.4725 3.1,15.845 -6.1175,0 3.0175,-15.845 z m 19.185,8.70625 0,-9.375 8.23625,0 0,-2.78375 -11.29875,0 0,27.45625 11.29875,0 0,-2.7825 -8.23625,0 0,-9.77125 6.70375,0 0,-2.74375 -6.70375,0 z m 21.9625,15.2975 0,-2.7825 -7.8425,0 0,-24.67375 -3.06125,0 0,27.45625 10.90375,0 z m 8.8275,-33.0275 -2.74375,4.03875 2.11375,0 3.6475,-4.03875 -3.0175,0 z m -3.45125,17.73 0,-9.375 8.23625,0 0,-2.78375 -11.29875,0 0,27.45625 11.29875,0 0,-2.7825 -8.23625,0 0,-9.77125 6.70875,0 0,-2.74375 -6.70875,0 z m 18.12,15.2975 0,-24.6725 5.06375,0 0,-2.78375 -13.18375,0 0,2.78375 5.0625,0 0,24.6725 3.0575,0 z m 7.1775,-27.45625 0,27.45625 3.06125,0 0,-11.7275 2.15875,0 c 2.54875,0 3.99875,0.98125 3.99875,4.07625 l 0,4.31625 c 0,1.84625 0.15625,2.54875 0.5125,3.335 l 3.09625,0 c -0.50875,-0.9425 -0.5475,-2.08 -0.5475,-3.295 l 0,-4.2725 c 0,-2.945 -0.9425,-4.98625 -3.4525,-5.7275 2.35375,-0.7475 3.41375,-2.6325 3.41375,-5.65 l 0,-2.23625 c 0,-4.0775 -1.80625,-6.275 -6.11875,-6.275 l -6.1225,0 z m 3.06125,12.945 0,-10.16125 2.98375,0 c 2.27,0 3.17375,1.29375 3.17375,3.765 l 0,2.62625 c 0,2.98375 -1.45,3.77 -3.8825,3.77 l -2.275,0 z m 12.3925,-12.945 0,27.45625 3.06125,0 0,-27.45625 -3.06125,0 z m 12.12375,-0.2775 c -4.19875,0 -6.15625,2.74875 -6.15625,6.90375 l 0,14.2 c 0,4.16 1.9575,6.90375 6.15625,6.90375 4.23375,0 6.19625,-2.74375 6.19625,-6.90375 l 0,-3.41375 -2.9,0 0,3.57 c 0,2.475 -0.98125,3.965 -3.2175,3.965 -2.1975,0 -3.2175,-1.49 -3.2175,-3.965 l 0,-14.5125 c 0,-2.47 1.02,-3.96 3.2175,-3.96 2.23625,0 3.2175,1.49 3.2175,3.96 l 0,2.6275 2.9,0 0,-2.47125 c 0,-4.155 -1.9625,-6.90375 -6.19625,-6.90375 z m 19.02375,22.2025 1.06,5.53125 3.05625,0 -5.25375,-27.45625 -4.43375,0 -5.25375,27.45625 2.8225,0 1.05875,-5.53125 6.94375,0 z m -3.53,-18.4725 3.095,15.845 -6.1175,0 3.0225,-15.845 z"
         style="fill:#ffffff;fill-opacity:1;fill-rule:nonzero;stroke:none"
         id="path3374-5"
         inkscape:connector-curvature="0" />
      <path
         d="m 411.2612,377.07891 -13.0225,19.785 -13.13375,-19.785 -14.42875,0 20.2925,30.79125 -20.17625,30.55125 14.42875,0 13.0175,-19.6625 12.90625,19.6625 14.42375,0 -20.17125,-30.55125 20.2875,-30.79125 -14.42375,0 z"
         style="fill:#ffffff;fill-opacity:1;fill-rule:nonzero;stroke:none"
         id="path3376-7"
         inkscape:connector-curvature="0" />
      <path
         d="m 328.47869,411.20016 -17.97375,27.22125 14.42875,0 10.77625,-16.27875 -7.23125,-10.9425 z"
         style="fill:#127bca;fill-opacity:1;fill-rule:nonzero;stroke:none"
         id="path3378-4"
         inkscape:connector-curvature="0" />
      <path
         d="m 350.97369,377.07891 -13.02249,19.785 -13.135,-19.785 -14.42875,0 15.3375,23.26625 12.20125,18.4525 0.025,-0.0387 6.42124,9.785 0.0288,0.0487 6.455,9.82875 14.42375,0 -20.175,-30.55125 20.2925,-30.79125 -14.42375,0 z"
         style="fill:#ffffff;fill-opacity:1;fill-rule:nonzero;stroke:none"
         id="path3380-4"
         inkscape:connector-curvature="0" />
    </g>
  </g>
</svg>
