<?xml version="1.0" encoding="UTF-8" standalone="no"?>
<!-- Created with Inkscape (http://www.inkscape.org/) -->

<svg
   xmlns:dc="http://purl.org/dc/elements/1.1/"
   xmlns:cc="http://creativecommons.org/ns#"
   xmlns:rdf="http://www.w3.org/1999/02/22-rdf-syntax-ns#"
   xmlns:svg="http://www.w3.org/2000/svg"
   xmlns="http://www.w3.org/2000/svg"
   xmlns:sodipodi="http://sodipodi.sourceforge.net/DTD/sodipodi-0.dtd"
   xmlns:inkscape="http://www.inkscape.org/namespaces/inkscape"
   id="svg2"
   version="1.1"
   inkscape:version="0.91 r13725"
   xml:space="preserve"
   width="619.9939"
   height="339.26575"
   viewBox="0 0 619.99591 339.26573"
   sodipodi:docname="senec.svg"><metadata
     id="metadata8"><rdf:RDF><cc:Work
         rdf:about=""><dc:format>image/svg+xml</dc:format><dc:type
           rdf:resource="http://purl.org/dc/dcmitype/StillImage" /><dc:title></dc:title></cc:Work></rdf:RDF></metadata><defs
     id="defs6"><clipPath
       clipPathUnits="userSpaceOnUse"
       id="clipPath16"><path
         d="m 0,841.89 595.28,0 L 595.28,0 0,0 0,841.89 Z"
         id="path18"
         inkscape:connector-curvature="0" /></clipPath><clipPath
       clipPathUnits="userSpaceOnUse"
       id="clipPath44"><path
         d="m 0,841.89 595.28,0 L 595.28,0 0,0 0,841.89 Z"
         id="path46"
         inkscape:connector-curvature="0" /></clipPath></defs><sodipodi:namedview
     pagecolor="#181c24"
     bordercolor="#666666"
     borderopacity="1"
     objecttolerance="10"
     gridtolerance="10"
     guidetolerance="10"
     inkscape:pageopacity="0"
     inkscape:pageshadow="2"
     inkscape:window-width="1140"
     inkscape:window-height="773"
     id="namedview4"
     showgrid="false"
     inkscape:zoom="0.70710678"
     inkscape:cx="188.80664"
     inkscape:cy="293.13711"
     inkscape:window-x="322"
     inkscape:window-y="65"
     inkscape:window-maximized="0"
     inkscape:current-layer="layer1"
     width="1052.3626px"
     fit-margin-top="0"
     fit-margin-left="0"
     fit-margin-right="0"
     fit-margin-bottom="0" /><g
     id="g10"
     inkscape:groupmode="layer"
     inkscape:label="Logo Senec"
     transform="matrix(1.25,0,0,-1.25,-71.09838,395.34291)"
     style="display:inline"><g
       id="g12"
       style="fill:#29235c;fill-opacity:1"
       transform="translate(-2.2627491,-178.75718)"><g
         id="g14"
         clip-path="url(#clipPath16)"
         style="fill:#29235c;fill-opacity:1"><g
           id="g20"
           transform="translate(487.796,441.2651)"
           style="fill:#29235c;fill-opacity:1"><path
             d="m 0,0 14.405,0 0,15 L 0,15 c -35.741,0 -64.819,-29.078 -64.819,-64.819 0,-35.742 29.078,-64.82 64.819,-64.82 l 14.405,0 0,15 -14.405,0 c -27.471,0 -49.819,22.349 -49.819,49.82 C -49.819,-22.349 -27.471,0 0,0"
             style="fill:#29235c;fill-opacity:1;fill-rule:nonzero;stroke:none"
             id="path22"
             inkscape:connector-curvature="0" /></g><g
           id="g24"
           transform="translate(370.1368,441.2642)"
           style="fill:#29235c;fill-opacity:1"><path
             d="m 0,0 40.942,0 0,15 L 0,15 C -15.624,15 -28.336,2.288 -28.336,-13.336 l 0,-73.696 c 0,-15.624 12.712,-28.336 28.336,-28.336 l 40.942,0 0,15 -40.942,0 c -7.354,0 -13.336,5.982 -13.336,13.336 l 0,29.347 54.278,0 0,15 -54.278,0 0,29.349 C -13.336,-5.982 -7.354,0 0,0"
             style="fill:#29235c;fill-opacity:1;fill-rule:nonzero;stroke:none"
             id="path26"
             inkscape:connector-curvature="0" /></g><g
           id="g28"
           transform="translate(206.8362,441.6782)"
           style="fill:#29235c;fill-opacity:1"><path
             d="m 0,0 40.942,0 0,15 L 0,15 C -15.624,15 -28.336,2.288 -28.336,-13.336 l 0,-73.696 c 0,-15.624 12.712,-28.336 28.336,-28.336 l 40.942,0 0,15 -40.942,0 c -7.354,0 -13.336,5.982 -13.336,13.336 l 0,29.347 54.278,0 0,15 -54.278,0 0,29.349 C -13.336,-5.982 -7.354,0 0,0"
             style="fill:#29235c;fill-opacity:1;fill-rule:nonzero;stroke:none"
             id="path30"
             inkscape:connector-curvature="0" /></g><g
           id="g32"
           transform="translate(296.1446,398.9458)"
           style="fill:#29235c;fill-opacity:1"><path
             d="m 0,0 c -8.008,0 -15.416,-2.603 -21.436,-6.999 l 0,7.473 -15,0 0,-74.196 15,0 0,37.285 C -21.436,-24.616 -11.82,-15 0,-15 c 11.819,0 21.436,-9.616 21.436,-21.437 l 0,-37.285 15,0 0,37.285 C 36.436,-16.346 20.091,0 0,0"
             style="fill:#29235c;fill-opacity:1;fill-rule:nonzero;stroke:none"
             id="path34"
             inkscape:connector-curvature="0" /></g><g
           id="g36"
           transform="translate(516.3352,473.5779)"
           style="fill:#29235c;fill-opacity:1"><path
             d="m 0,0 c -0.001,0.032 -0.012,0.064 -0.012,0.096 0,0.088 0.025,0.177 0.033,0.265 C 0.013,0.241 0.003,0.122 0,0 m -426.033,-139.449 c -0.003,0.121 -0.013,0.241 -0.02,0.361 0.007,-0.088 0.032,-0.177 0.032,-0.265 0,-0.032 -0.011,-0.064 -0.012,-0.096 M 38.803,5.072 l 0,7 -13.719,0 0,0.725 0,2.728 C 13.13,15.525 3.194,12.4 -1.863,7.595 l -388.496,0 c -23.386,0 -42.412,-19.026 -42.412,-42.412 0,-23.386 19.026,-42.413 42.412,-42.413 15.116,0 27.413,-12.297 27.413,-27.412 0,-15.115 -12.297,-27.412 -27.413,-27.412 l -33.61,0 c -4.99,4.917 -15.029,8.13 -27.148,8.13 l 0,-2.728 0,-2.728 0,-19.947 0,-2.728 0,-2.728 c 11.786,0 21.603,3.04 26.724,7.729 l 34.034,0 c 23.387,0 42.413,19.026 42.413,42.412 0,23.386 -19.026,42.412 -42.413,42.412 -15.115,0 -27.412,12.298 -27.412,27.413 0,15.116 12.297,27.412 27.412,27.412 l 388.496,0 c 5.057,-4.804 14.993,-7.929 26.947,-7.929 l 0,2.728 0,0.533 13.719,0 0,7 -13.719,0 0,10.145 13.719,0 z"
             style="fill:#29235c;fill-opacity:1;fill-rule:nonzero;stroke:none"
             id="path38"
             inkscape:connector-curvature="0" /></g></g></g></g><g
     inkscape:groupmode="layer"
     id="layer1"
     inkscape:label="up"
     style="display:inline"
     transform="translate(-71.09838,-657.01959)"><g
       transform="matrix(1.25,0,0,-1.25,-2.8284364,1275.809)"
       id="g40"
       style="fill:#ffffff;fill-opacity:1"><g
         id="g42"
         clip-path="url(#clipPath44)"
         style="fill:#ffffff;fill-opacity:1"><g
           id="g48"
           transform="translate(483.7959,447.1942)"
           style="fill:#ffffff;fill-opacity:1"><path
             d="m 0,0 14.405,0 0,15 L 0,15 c -35.741,0 -64.819,-29.078 -64.819,-64.819 0,-35.742 29.078,-64.82 64.819,-64.82 l 14.405,0 0,15 -14.405,0 c -27.471,0 -49.819,22.349 -49.819,49.82 C -49.819,-22.349 -27.471,0 0,0"
             style="fill:#ffffff;fill-opacity:1;fill-rule:nonzero;stroke:none"
             id="path50"
             inkscape:connector-curvature="0" /></g><g
           id="g52"
           transform="translate(366.1367,447.1937)"
           style="fill:#ffffff;fill-opacity:1"><path
             d="m 0,0 40.942,0 0,15 L 0,15 C -15.624,15 -28.336,2.289 -28.336,-13.336 l 0,-73.696 c 0,-15.625 12.712,-28.337 28.336,-28.337 l 40.942,0 0,15 -40.942,0 c -7.354,0 -13.336,5.983 -13.336,13.337 l 0,29.347 54.278,0 0,15 -54.278,0 0,29.349 C -13.336,-5.982 -7.354,0 0,0"
             style="fill:#ffffff;fill-opacity:1;fill-rule:nonzero;stroke:none"
             id="path54"
             inkscape:connector-curvature="0" /></g><g
           id="g56"
           transform="translate(202.8362,447.6083)"
           style="fill:#ffffff;fill-opacity:1"><path
             d="m 0,0 40.942,0 0,15 L 0,15 C -15.624,15 -28.336,2.289 -28.336,-13.336 l 0,-73.696 c 0,-15.625 12.712,-28.337 28.336,-28.337 l 40.942,0 0,15 -40.942,0 c -7.354,0 -13.336,5.983 -13.336,13.337 l 0,29.347 54.278,0 0,15 -54.278,0 0,29.349 C -13.336,-5.982 -7.354,0 0,0"
             style="fill:#ffffff;fill-opacity:1;fill-rule:nonzero;stroke:none"
             id="path58"
             inkscape:connector-curvature="0" /></g><g
           id="g60"
           transform="translate(292.1445,404.8754)"
           style="fill:#ffffff;fill-opacity:1"><path
             d="m 0,0 c -8.008,0 -15.416,-2.603 -21.436,-6.999 l 0,7.472 -15,0 0,-74.195 15,0 0,37.285 C -21.436,-24.616 -11.82,-15 0,-15 c 11.819,0 21.436,-9.616 21.436,-21.437 l 0,-37.285 15,0 0,37.285 C 36.436,-16.346 20.091,0 0,0"
             style="fill:#ffffff;fill-opacity:1;fill-rule:nonzero;stroke:none"
             id="path62"
             inkscape:connector-curvature="0" /></g><g
           id="g64"
           transform="translate(512.3351,479.5072)"
           style="fill:#ffffff;fill-opacity:1"><path
             d="m 0,0 c -0.001,0.032 -0.012,0.064 -0.012,0.096 0,0.088 0.025,0.177 0.033,0.265 C 0.013,0.241 0.003,0.122 0,0 m -426.033,-139.449 c -0.003,0.121 -0.013,0.241 -0.02,0.361 0.007,-0.088 0.032,-0.177 0.032,-0.265 0,-0.032 -0.011,-0.064 -0.012,-0.096 M 38.803,5.072 l 0,7 -13.719,0 0,0.725 0,2.728 C 13.13,15.525 3.194,12.4 -1.863,7.596 l -388.496,0 c -23.386,0 -42.412,-19.027 -42.412,-42.413 0,-23.386 19.026,-42.412 42.412,-42.412 15.116,0 27.413,-12.297 27.413,-27.413 0,-15.115 -12.297,-27.413 -27.413,-27.413 l -33.609,0 c -4.99,4.917 -15.03,8.131 -27.149,8.131 l 0,-2.728 0,-2.728 0,-19.947 0,-2.728 0,-2.728 c 11.785,0 21.602,3.039 26.724,7.728 l 34.034,0 c 23.387,0 42.413,19.027 42.413,42.413 0,23.386 -19.026,42.413 -42.413,42.413 -15.115,0 -27.412,12.297 -27.412,27.412 0,15.115 12.297,27.413 27.412,27.413 l 388.496,0 c 5.057,-4.804 14.993,-7.93 26.947,-7.93 l 0,2.728 0,0.534 13.719,0 0,7 -13.719,0 0,10.144 13.719,0 z"
             style="fill:#ffffff;fill-opacity:1;fill-rule:nonzero;stroke:none"
             id="path66"
             inkscape:connector-curvature="0" /></g></g></g><text
       xml:space="preserve"
       style="font-style:normal;font-weight:normal;font-size:40px;line-height:125%;font-family:sans-serif;letter-spacing:0px;word-spacing:0px;fill:#000000;fill-opacity:1;stroke:none;stroke-width:1px;stroke-linecap:butt;stroke-linejoin:miter;stroke-opacity:1"
       x="378.47488"
       y="930.74097"
       id="text4419"
       sodipodi:linespacing="125%"><tspan
         sodipodi:role="line"
         x="385.50616"
         y="930.74097"
         style="font-style:normal;font-variant:normal;font-weight:normal;font-stretch:normal;font-size:45.00014877px;font-family:Tahoma;-inkscape-font-specification:Tahoma;text-align:center;text-anchor:middle;fill:#ffffff"
         id="tspan4164">Semana de Engenharia Elétrica </tspan><tspan
         sodipodi:role="line"
         x="378.47488"
         y="986.99115"
         style="font-style:normal;font-variant:normal;font-weight:normal;font-stretch:normal;font-size:45.00014877px;font-family:Tahoma;-inkscape-font-specification:Tahoma;text-align:center;text-anchor:middle;fill:#ffffff"
         id="tspan4168">e de Computação</tspan></text>
</g></svg>